<svg width="10" height="10" viewBox="0 0 10 10" fill="none" xmlns="http://www.w3.org/2000/svg">
<path d="M6.92537 1.24579C6.87699 1.19728 6.81951 1.1588 6.75624 1.13255C6.69296 1.10629 6.62513 1.09277 6.55662 1.09277C6.48811 1.09277 6.42028 1.10629 6.357 1.13255C6.29372 1.1588 6.23625 1.19728 6.18787 1.24579L2.72537 4.70829C2.68674 4.74683 2.6561 4.79262 2.63519 4.84303C2.61428 4.89343 2.60352 4.94747 2.60352 5.00204C2.60352 5.05661 2.61428 5.11064 2.63519 5.16105C2.6561 5.21145 2.68674 5.25724 2.72537 5.29579L6.18787 8.75829C6.39204 8.96245 6.7212 8.96245 6.92537 8.75829C7.12954 8.55412 7.12954 8.22495 6.92537 8.02079L3.9087 4.99995L6.92953 1.97912C7.12953 1.77912 7.12954 1.44579 6.92537 1.24579Z" fill="#3D4561" stroke="#3D4561" stroke-width="0.5"/>
</svg>
