<svg width="26" height="26" viewBox="0 0 26 26" fill="none" xmlns="http://www.w3.org/2000/svg">
<rect x="1.25" y="1.25" width="23.5" height="23.5" rx="1.75" fill="white" stroke="#A5A5A5" stroke-width="0.5"/>
<path d="M16.5467 10.7896L13.3973 16.7127C12.7921 17.851 11.3799 18.2827 10.2416 17.6775C9.10337 17.0722 8.67164 15.6601 9.27686 14.5218L12.7001 8.08367C12.8817 7.74217 13.1915 7.48679 13.5614 7.3737C13.9312 7.26062 14.3309 7.2991 14.6724 7.48068C15.0139 7.66226 15.2693 7.97207 15.3823 8.34194C15.4954 8.71181 15.4569 9.11146 15.2754 9.45296L12.3998 14.861C12.2492 15.1443 11.8942 15.2528 11.6109 15.1022C11.3277 14.9516 11.2191 14.5966 11.3697 14.3133L13.9714 9.4203L13.1988 9.00951L10.5972 13.9025C10.4156 14.244 10.3771 14.6437 10.4902 15.0135C10.6033 15.3834 10.8586 15.6932 11.2001 15.8748C11.5416 16.0564 11.9413 16.0949 12.3112 15.9818C12.681 15.8687 12.9908 15.6133 13.1724 15.2718L16.0479 9.86375C16.6532 8.72548 16.2214 7.31333 15.0832 6.7081C13.9449 6.10288 12.5327 6.53462 11.9275 7.67288L8.50428 14.111C7.67175 15.6768 8.26509 17.6175 9.83085 18.4501C11.3966 19.2826 13.3373 18.6892 14.1699 17.1235L17.3192 11.2004L16.5467 10.7896Z" fill="#3D4561" stroke="#3D4561" stroke-width="0.5"/>
</svg>
