<svg width="26" height="26" viewBox="0 0 26 26" fill="none" xmlns="http://www.w3.org/2000/svg">
<rect x="1.25" y="1.25" width="23.5" height="23.5" rx="1.75" fill="#C9C9C9" stroke="#A5A5A5" stroke-width="0.5"/>
<path d="M13.8994 15.9951C14.7404 16.2476 15.4896 16.4086 16.5615 16.6962C16.1502 21.2365 11.2312 19.4337 13.8994 15.9951ZM18.2909 11.8233C18.235 10.4599 17.9606 8.67153 15.7679 8.95153C14.7404 9.18575 13.982 10.1722 13.6272 11.8698C13.4606 12.8797 13.5127 13.9136 13.7801 14.9018C13.9911 15.4556 13.9193 15.4213 14.1463 15.5266C15.0248 15.699 15.8941 15.8905 16.7801 16.0858C17.6746 15.5304 18.4139 12.5862 18.2916 11.8233H18.2909ZM11.5286 11.7187C11.7958 10.7306 11.8479 9.69674 11.6815 8.68678C11.3207 6.9877 10.5622 6.00274 9.53471 5.76851C7.3451 5.48851 7.06834 7.27686 7.0133 8.63872C6.89097 9.40167 7.62951 12.3459 8.52936 12.9005C9.41468 12.7052 10.2878 12.5145 11.1632 12.3413C11.3895 12.2383 11.3207 12.2726 11.5294 11.7187H11.5286ZM8.74266 13.5132C9.15398 18.0542 14.073 16.2506 11.4047 12.812C10.5599 13.0638 9.81453 13.2256 8.74266 13.5132Z" stroke="#3D4561" stroke-width="1.25"/>
</svg>
