<svg width="16" height="20" viewBox="0 0 16 20" fill="none" xmlns="http://www.w3.org/2000/svg">
<path d="M9.41409 14.2467C10.4397 14.5547 11.3534 14.751 12.6606 15.1018C12.159 20.6389 6.16011 18.4402 9.41409 14.2467ZM14.7696 9.15906C14.7016 7.49636 14.3669 5.31539 11.6928 5.65687C10.4397 5.94251 9.51479 7.14558 9.08217 9.21581C8.87892 10.4475 8.94251 11.7083 9.26864 12.9134C9.52598 13.5889 9.43833 13.547 9.71525 13.6754C10.7865 13.8857 11.8467 14.1193 12.9273 14.3574C14.0181 13.6801 14.9198 10.0895 14.7706 9.15906H14.7696ZM6.52281 9.03159C6.84865 7.82646 6.91224 6.56569 6.70928 5.334C6.2692 3.26191 5.34429 2.0607 4.09118 1.77506C1.42087 1.43358 1.08335 3.61454 1.01622 5.27539C0.867039 6.20583 1.76771 9.79641 2.86511 10.4728C3.9448 10.2347 5.00957 10.002 6.07713 9.79083C6.35312 9.66522 6.2692 9.70709 6.52374 9.03159H6.52281ZM3.12524 11.22C3.62686 16.758 9.62574 14.5584 6.37176 10.3649C5.34149 10.672 4.43243 10.8692 3.12524 11.22Z" stroke="#3D4561" stroke-width="1.5"/>
</svg>
