<svg width="17" height="17" viewBox="0 0 17 17" fill="none" xmlns="http://www.w3.org/2000/svg">
<path d="M11.7724 2.11803C11.6902 2.03558 11.5925 1.97016 11.4849 1.92552C11.3773 1.88089 11.262 1.85791 11.1456 1.85791C11.0291 1.85791 10.9138 1.88089 10.8062 1.92552C10.6986 1.97016 10.6009 2.03558 10.5187 2.11803L4.63244 8.00428C4.56678 8.06981 4.51468 8.14765 4.47913 8.23334C4.44359 8.31903 4.42529 8.41089 4.42529 8.50366C4.42529 8.59643 4.44359 8.68829 4.47913 8.77398C4.51468 8.85967 4.56678 8.9375 4.63244 9.00303L10.5187 14.8893C10.8658 15.2364 11.4254 15.2364 11.7724 14.8893C12.1195 14.5422 12.1195 13.9826 11.7724 13.6355L6.64411 8.50012L11.7795 3.3647C12.1195 3.0247 12.1195 2.45803 11.7724 2.11803Z" fill="#3D4561"/>
</svg>
