<svg width="22" height="22" viewBox="0 0 22 22" fill="none" xmlns="http://www.w3.org/2000/svg">
<path fill-rule="evenodd" clip-rule="evenodd" d="M10.9999 0.25C8.94451 0.25 6.97327 1.06652 5.51986 2.51992C4.06646 3.97333 3.24994 5.94457 3.24994 8V8.704C3.24988 9.40089 3.04355 10.0822 2.65694 10.662L1.50994 12.385C0.175942 14.385 1.19394 17.103 3.51294 17.735C4.26794 17.941 5.02994 18.115 5.79694 18.258L5.79894 18.263C6.56694 20.315 8.62194 21.75 10.9999 21.75C13.3779 21.75 15.4329 20.315 16.2019 18.263L16.2039 18.258C16.9721 18.1151 17.7341 17.9406 18.4879 17.735C20.8069 17.103 21.8249 14.385 20.4909 12.385L19.3429 10.662C18.9563 10.0822 18.75 9.40089 18.7499 8.704V8C18.7499 5.94457 17.9334 3.97333 16.48 2.51992C15.0266 1.06652 13.0554 0.25 10.9999 0.25ZM14.3759 18.537C12.1329 18.805 9.86596 18.805 7.62294 18.537C8.33394 19.558 9.57094 20.25 10.9999 20.25C12.4289 20.25 13.6649 19.558 14.3759 18.537ZM4.74994 8C4.74994 6.3424 5.40842 4.75269 6.58052 3.58058C7.75263 2.40848 9.34234 1.75 10.9999 1.75C12.6575 1.75 14.2473 2.40848 15.4194 3.58058C16.5915 4.75269 17.2499 6.3424 17.2499 8V8.704C17.2499 9.697 17.5439 10.668 18.0949 11.494L19.2429 13.217C19.4208 13.4834 19.5328 13.7883 19.5696 14.1065C19.6065 14.4247 19.5671 14.7471 19.4547 15.0471C19.3424 15.3471 19.1603 15.6161 18.9235 15.8319C18.6868 16.0476 18.4021 16.204 18.0929 16.288C13.4487 17.5546 8.55014 17.5546 3.90594 16.288C3.59711 16.2037 3.31271 16.0473 3.07618 15.8316C2.83965 15.6158 2.65774 15.347 2.54544 15.0472C2.43314 14.7475 2.39367 14.4253 2.43027 14.1073C2.46686 13.7892 2.57849 13.4844 2.75594 13.218L3.90594 11.494C4.45648 10.6677 4.75015 9.69692 4.74994 8.704V8Z" fill="#3C424B"/>
</svg>
