<svg width="15" height="11" viewBox="0 0 15 13" fill="none" xmlns="http://www.w3.org/2000/svg">
<path d="M8.82001 11.8867L10.72 10L8.82001 8.11333L9.76667 7.17333L11.6667 9.04667L13.5333 7.17333L14.48 8.11333L12.6067 10L14.48 11.8867L13.5333 12.8267L11.6667 10.9333L9.76667 12.8267L8.82001 11.8867ZM7.66667 11.2533C7.69334 11.4533 7.62667 11.6667 7.47334 11.8067C7.21334 12.0667 6.79334 12.0667 6.53334 11.8067L3.86001 9.13333C3.70667 8.98 3.64001 8.77333 3.66667 8.58V5.16667L0.47334 1.08C0.246674 0.793333 0.300007 0.373333 0.586674 0.146667C0.71334 0.0533333 0.85334 0 1.00001 0H10.3333C10.48 0 10.62 0.0533333 10.7467 0.146667C11.0333 0.373333 11.0867 0.793333 10.86 1.08L7.66667 5.16667V11.2533ZM2.36001 1.33333L5.00001 4.70667V8.38667L6.33334 9.72V4.7L8.97334 1.33333H2.36001Z" fill="#0C173A"/>
</svg>
