<svg width="26" height="26" viewBox="0 0 26 26" fill="none" xmlns="http://www.w3.org/2000/svg">
<g id="State=Hover">
<rect id="Rectangle 17774" x="1.25" y="1.25" width="23.5" height="23.5" rx="1.75" fill="#C9C9C9" stroke="#A5A5A5" stroke-width="0.5"/>
<path id="Vector" d="M7.66659 10.3333H18.3333V8.33333H7.66659V10.3333ZM14.3333 17.6667V11.6667H11.6666V17.6667H14.3333ZM15.6666 17.6667H18.3333V11.6667H15.6666V17.6667ZM10.3333 17.6667V11.6667H7.66659V17.6667H10.3333ZM6.99992 7H18.9999C19.1767 7 19.3463 7.07024 19.4713 7.19526C19.5963 7.32029 19.6666 7.48986 19.6666 7.66667V18.3333C19.6666 18.5101 19.5963 18.6797 19.4713 18.8047C19.3463 18.9298 19.1767 19 18.9999 19H6.99992C6.82311 19 6.65354 18.9298 6.52851 18.8047C6.40349 18.6797 6.33325 18.5101 6.33325 18.3333V7.66667C6.33325 7.48986 6.40349 7.32029 6.52851 7.19526C6.65354 7.07024 6.82311 7 6.99992 7Z" fill="#3D4561"/>
</g>
</svg>
