<svg id="Delete" xmlns="http://www.w3.org/2000/svg" width="10.4" height="14.4" viewBox="0 0 10.4 14.4">
  <path id="Path_2363" data-name="Path 2363" d="M11.36,1.44H8.933V1.08A1.062,1.062,0,0,0,7.893,0H6.507a1.062,1.062,0,0,0-1.04,1.08v.36H3.04A1.062,1.062,0,0,0,2,2.52v.72a1.079,1.079,0,0,0,.693,1.018V13.32a1.062,1.062,0,0,0,1.04,1.08h6.933a1.062,1.062,0,0,0,1.04-1.08V4.258A1.079,1.079,0,0,0,12.4,3.24V2.52a1.062,1.062,0,0,0-1.04-1.08Zm-5.2-.36A.354.354,0,0,1,6.507.72H7.893a.354.354,0,0,1,.347.36v.36H6.16Zm4.507,12.6H3.733a.354.354,0,0,1-.347-.36v-9h7.627v9A.354.354,0,0,1,10.667,13.68Zm1.04-10.44a.354.354,0,0,1-.347.36H3.04a.354.354,0,0,1-.347-.36V2.52a.354.354,0,0,1,.347-.36h8.32a.354.354,0,0,1,.347.36Z" transform="translate(-2)" fill="#FFFFF"/>
  <path id="Path_2364" data-name="Path 2364" d="M12.4,7a.4.4,0,0,0-.4.4v8a.4.4,0,1,0,.8,0v-8A.4.4,0,0,0,12.4,7Z" transform="translate(-5.143 -3)" fill="#707070"/>
  <path id="Path_2365" data-name="Path 2365" d="M9.4,7a.4.4,0,0,0-.4.4v8a.4.4,0,1,0,.8,0v-8A.4.4,0,0,0,9.4,7Z" transform="translate(-4.2 -3)" fill="#707070"/>
  <path id="Path_2366" data-name="Path 2366" d="M6.4,7a.4.4,0,0,0-.4.4v8a.4.4,0,1,0,.8,0v-8A.4.4,0,0,0,6.4,7Z" transform="translate(-3.257 -3)" fill="#707070"/>
</svg>