<svg width="14" height="14" viewBox="0 0 14 14" fill="none" xmlns="http://www.w3.org/2000/svg">
<path d="M5.75 3H8.25C8.25 2.66848 8.1183 2.35054 7.88388 2.11612C7.64946 1.8817 7.33152 1.75 7 1.75C6.66848 1.75 6.35054 1.8817 6.11612 2.11612C5.8817 2.35054 5.75 2.66848 5.75 3ZM5 3C5 2.46957 5.21071 1.96086 5.58579 1.58579C5.96086 1.21071 6.46957 1 7 1C7.53043 1 8.03914 1.21071 8.41421 1.58579C8.78929 1.96086 9 2.46957 9 3H12.125C12.2245 3 12.3198 3.03951 12.3902 3.10984C12.4605 3.18016 12.5 3.27554 12.5 3.375C12.5 3.47446 12.4605 3.56984 12.3902 3.64017C12.3198 3.71049 12.2245 3.75 12.125 3.75H11.47L10.8615 11.0515C10.8172 11.5827 10.575 12.0778 10.1827 12.4387C9.79053 12.7996 9.27701 13 8.744 13H5.256C4.723 13 4.20947 12.7996 3.81725 12.4387C3.42503 12.0778 3.18277 11.5827 3.1385 11.0515L2.53 3.75H1.875C1.77554 3.75 1.68016 3.71049 1.60983 3.64017C1.53951 3.56984 1.5 3.47446 1.5 3.375C1.5 3.27554 1.53951 3.18016 1.60983 3.10984C1.68016 3.03951 1.77554 3 1.875 3H5ZM3.886 10.989C3.91459 11.3327 4.07131 11.6531 4.32507 11.8867C4.57884 12.1203 4.91111 12.2499 5.256 12.25H8.744C9.08889 12.2499 9.42117 12.1203 9.67493 11.8867C9.92869 11.6531 10.0854 11.3327 10.114 10.989L10.718 3.75H3.2825L3.886 10.989ZM5.875 5.5C5.97446 5.5 6.06984 5.53951 6.14017 5.60984C6.21049 5.68016 6.25 5.77554 6.25 5.875V10.125C6.25 10.2245 6.21049 10.3198 6.14017 10.3902C6.06984 10.4605 5.97446 10.5 5.875 10.5C5.77554 10.5 5.68016 10.4605 5.60984 10.3902C5.53951 10.3198 5.5 10.2245 5.5 10.125V5.875C5.5 5.77554 5.53951 5.68016 5.60984 5.60984C5.68016 5.53951 5.77554 5.5 5.875 5.5ZM8.5 5.875C8.5 5.77554 8.46049 5.68016 8.39017 5.60984C8.31984 5.53951 8.22446 5.5 8.125 5.5C8.02554 5.5 7.93016 5.53951 7.85984 5.60984C7.78951 5.68016 7.75 5.77554 7.75 5.875V10.125C7.75 10.2245 7.78951 10.3198 7.85984 10.3902C7.93016 10.4605 8.02554 10.5 8.125 10.5C8.22446 10.5 8.31984 10.4605 8.39017 10.3902C8.46049 10.3198 8.5 10.2245 8.5 10.125V5.875Z" fill="#3D4561"/>
</svg>
