<svg width="26" height="26" viewBox="0 0 26 26" fill="none" xmlns="http://www.w3.org/2000/svg">
<g id="State=Default">
<rect id="Rectangle 17775" x="1.25" y="1.25" width="23.5" height="23.5" rx="1.75" fill="white" stroke="#A5A5A5" stroke-width="0.5"/>
<path id="Vector" d="M11.5715 8.42854H14.4286C14.4286 8.04966 14.2781 7.68629 14.0102 7.41838C13.7423 7.15047 13.379 6.99997 13.0001 6.99997C12.6212 6.99997 12.2578 7.15047 11.9899 7.41838C11.722 7.68629 11.5715 8.04966 11.5715 8.42854ZM10.7144 8.42854C10.7144 7.82233 10.9552 7.24095 11.3838 6.81229C11.8125 6.38364 12.3939 6.14282 13.0001 6.14282C13.6063 6.14282 14.1877 6.38364 14.6163 6.81229C15.045 7.24095 15.2858 7.82233 15.2858 8.42854H18.8572C18.9709 8.42854 19.0799 8.47369 19.1603 8.55406C19.2406 8.63444 19.2858 8.74344 19.2858 8.85711C19.2858 8.97077 19.2406 9.07978 19.1603 9.16015C19.0799 9.24053 18.9709 9.28568 18.8572 9.28568H18.1086L17.4132 17.6303C17.3626 18.2373 17.0857 18.8032 16.6375 19.2156C16.1892 19.6281 15.6024 19.8571 14.9932 19.8571H11.0069C10.3978 19.8571 9.81089 19.6281 9.36264 19.2156C8.9144 18.8032 8.63752 18.2373 8.58693 17.6303L7.8915 9.28568H7.14293C7.02926 9.28568 6.92025 9.24053 6.83988 9.16015C6.75951 9.07978 6.71436 8.97077 6.71436 8.85711C6.71436 8.74344 6.75951 8.63444 6.83988 8.55406C6.92025 8.47369 7.02926 8.42854 7.14293 8.42854H10.7144ZM9.44121 17.5588C9.47389 17.9516 9.653 18.3178 9.94301 18.5847C10.233 18.8517 10.6128 18.9999 11.0069 19H14.9932C15.3874 18.9999 15.7671 18.8517 16.0571 18.5847C16.3471 18.3178 16.5262 17.9516 16.5589 17.5588L17.2492 9.28568H8.7515L9.44121 17.5588ZM11.7144 11.2857C11.828 11.2857 11.937 11.3308 12.0174 11.4112C12.0978 11.4916 12.1429 11.6006 12.1429 11.7143V16.5714C12.1429 16.6851 12.0978 16.7941 12.0174 16.8744C11.937 16.9548 11.828 17 11.7144 17C11.6007 17 11.4917 16.9548 11.4113 16.8744C11.3309 16.7941 11.2858 16.6851 11.2858 16.5714V11.7143C11.2858 11.6006 11.3309 11.4916 11.4113 11.4112C11.4917 11.3308 11.6007 11.2857 11.7144 11.2857ZM14.7144 11.7143C14.7144 11.6006 14.6692 11.4916 14.5888 11.4112C14.5085 11.3308 14.3994 11.2857 14.2858 11.2857C14.1721 11.2857 14.0631 11.3308 13.9827 11.4112C13.9024 11.4916 13.8572 11.6006 13.8572 11.7143V16.5714C13.8572 16.6851 13.9024 16.7941 13.9827 16.8744C14.0631 16.9548 14.1721 17 14.2858 17C14.3994 17 14.5085 16.9548 14.5888 16.8744C14.6692 16.7941 14.7144 16.6851 14.7144 16.5714V11.7143Z" fill="#3D4561" stroke="#3D4561" stroke-width="0.5"/>
</g>
</svg>
