<svg width="26" height="26" viewBox="0 0 26 26" fill="none" xmlns="http://www.w3.org/2000/svg">
<g id="State=Default">
<rect id="Rectangle 17775" x="1.25" y="1.25" width="23.5" height="23.5" rx="1.75" fill="white" stroke="#A5A5A5" stroke-width="0.5"/>
<path id="Vector" fill-rule="evenodd" clip-rule="evenodd" d="M8.15536 14.432C8.16846 14.348 8.20797 14.2704 8.26816 14.2104L16.3306 6.148C16.4056 6.07301 16.5073 6.03088 16.6134 6.03088C16.7194 6.03088 16.8211 6.07301 16.8962 6.148L20.0082 9.26C20.0829 9.33498 20.1249 9.43653 20.1249 9.5424C20.1249 9.64827 20.0829 9.74982 20.0082 9.8248L11.9442 17.888C11.884 17.9479 11.8064 17.9871 11.7226 18L8.04656 18.5648C7.98449 18.5743 7.92106 18.5691 7.86139 18.5495C7.80172 18.53 7.74749 18.4967 7.70309 18.4523C7.6587 18.4079 7.62537 18.3536 7.60582 18.294C7.58627 18.2343 7.58104 18.1709 7.59056 18.1088L8.15536 14.432ZM8.92656 14.6832L8.46496 17.6912L11.4722 17.2288L19.1594 9.5424L16.613 6.9968L8.92656 14.6832Z" fill="#3D4561" stroke="#3D4561" stroke-width="0.5"/>
<path id="Vector_2" fill-rule="evenodd" clip-rule="evenodd" d="M17.3777 11.5383L14.5481 8.71435L15.1137 8.14795L17.9425 10.9719L17.3777 11.5383Z" fill="#3D4561" stroke="#3D4561" stroke-width="0.5"/>
</g>
</svg>
