<svg width="26" height="26" viewBox="0 0 26 26" fill="none" xmlns="http://www.w3.org/2000/svg">
<g id="State=Hover">
<rect id="Rectangle 17774" x="1.25" y="1.25" width="23.5" height="23.5" rx="1.75" fill="#C9C9C9" stroke="#A5A5A5" stroke-width="0.5"/>
<g id="Vector">
<path fill-rule="evenodd" clip-rule="evenodd" d="M7.35293 15.1177C7.35293 14.9305 7.35293 10.6471 7.35293 10.6471H6.88234H5.94116C5.94116 10.6471 5.94116 14.9305 5.94116 15.1177V18.1765C5.94116 18.6757 6.13948 19.1545 6.49249 19.5075C6.8455 19.8605 7.32428 20.0589 7.82352 20.0589H17.2353C17.7345 20.0589 18.2133 19.8605 18.5663 19.5075C18.9193 19.1545 19.1176 18.6757 19.1176 18.1765V17.2353H18.647C18.647 17.2353 18.3637 17.2353 18.1765 17.2353C17.9892 17.2353 17.7077 17.2335 17.7059 17.2353V18.1765C17.7059 18.3013 17.6563 18.421 17.568 18.5093C17.4798 18.5975 17.3601 18.6471 17.2353 18.6471H7.82352C7.69871 18.6471 7.57901 18.5975 7.49076 18.5093C7.40251 18.421 7.35293 18.3013 7.35293 18.1765V15.1177Z" fill="#3D4561"/>
<path fill-rule="evenodd" clip-rule="evenodd" d="M7.35293 15.1177C7.35293 14.9305 7.35293 10.6471 7.35293 10.6471H6.88234H5.94116C5.94116 10.6471 5.94116 14.9305 5.94116 15.1177V18.1765C5.94116 18.6757 6.13948 19.1545 6.49249 19.5075C6.8455 19.8605 7.32428 20.0589 7.82352 20.0589H17.2353C17.7345 20.0589 18.2133 19.8605 18.5663 19.5075C18.9193 19.1545 19.1176 18.6757 19.1176 18.1765V17.2353H18.647C18.647 17.2353 18.3637 17.2353 18.1765 17.2353C17.9892 17.2353 17.7077 17.2335 17.7059 17.2353V18.1765C17.7059 18.3013 17.6563 18.421 17.568 18.5093C17.4798 18.5975 17.3601 18.6471 17.2353 18.6471H7.82352C7.69871 18.6471 7.57901 18.5975 7.49076 18.5093C7.40251 18.421 7.35293 18.3013 7.35293 18.1765V15.1177Z" fill="#3D4561"/>
</g>
<g id="Vector_2">
<path fill-rule="evenodd" clip-rule="evenodd" d="M17.7058 17.2353H19.1176L19.1178 15.8238C19.1178 15.6366 19.0434 15.457 18.911 15.3247C18.7787 15.1923 18.5991 15.1179 18.4119 15.1179C18.2247 15.1179 18.0451 15.1923 17.9128 15.3247C17.7804 15.457 17.706 15.6366 17.706 15.8238L17.7058 17.2353Z" fill="#3D4561"/>
<path fill-rule="evenodd" clip-rule="evenodd" d="M17.7058 17.2353H19.1176L19.1178 15.8238C19.1178 15.6366 19.0434 15.457 18.911 15.3247C18.7787 15.1923 18.5991 15.1179 18.4119 15.1179C18.2247 15.1179 18.0451 15.1923 17.9128 15.3247C17.7804 15.457 17.706 15.6366 17.706 15.8238L17.7058 17.2353Z" fill="#3D4561"/>
</g>
<g id="Vector_3">
<path fill-rule="evenodd" clip-rule="evenodd" d="M7.82364 7.35255V7.34923C7.82364 7.34923 7.82364 7.34923 7.82364 7.35255C7.82364 7.35255 7.82364 6.44017 7.82364 5.94094H8.37497C8.37497 5.94094 9.20677 5.94094 9.706 5.94094H12.7648C12.952 5.94094 13.1316 6.01531 13.264 6.14769C13.3963 6.28006 13.4707 6.45961 13.4707 6.64682C13.4707 6.83403 13.3963 7.01357 13.264 7.14595C13.1316 7.27833 12.952 7.3527 12.7648 7.3527H9.706C9.58119 7.3527 9.23541 7.35257 9.23541 7.35257L7.82364 7.35255Z" fill="#3D4561"/>
<path fill-rule="evenodd" clip-rule="evenodd" d="M7.82364 7.35255V7.34923C7.82364 7.34923 7.82364 7.34923 7.82364 7.35255C7.82364 7.35255 7.82364 6.44017 7.82364 5.94094C7.82364 5.94094 9.20677 5.94094 9.706 5.94094H12.7648C12.952 5.94094 13.1316 6.01531 13.264 6.14769C13.3963 6.28006 13.4707 6.45961 13.4707 6.64682C13.4707 6.83403 13.3963 7.01357 13.264 7.14595C13.1316 7.27833 12.952 7.3527 12.7648 7.3527H9.706C9.58119 7.3527 9.23541 7.35257 9.23541 7.35257L7.82364 7.35255Z" fill="#3D4561"/>
</g>
<g id="Vector_4">
<path fill-rule="evenodd" clip-rule="evenodd" d="M7.35293 10.8824C7.35293 11.0696 7.27856 11.2491 7.14618 11.3815C7.0138 11.5139 6.83426 11.5883 6.64704 11.5883C6.45983 11.5883 6.28029 11.5139 6.14791 11.3815C6.01553 11.2491 5.94116 11.0696 5.94116 10.8824V7.82355C5.94116 7.32432 6.13948 6.84554 6.49249 6.49253C6.8455 6.13952 7.32428 5.9412 7.82352 5.9412H11.1176V6.41179C11.1176 6.41179 11.1176 6.38314 11.1176 6.88237V7.35296H7.82352C7.69871 7.35296 7.57901 7.40254 7.49076 7.49079C7.40251 7.57905 7.35293 7.69874 7.35293 7.82355V10.8824Z" fill="#3D4561"/>
<path fill-rule="evenodd" clip-rule="evenodd" d="M7.35293 10.8824C7.35293 11.0696 7.27856 11.2491 7.14618 11.3815C7.0138 11.5139 6.83426 11.5883 6.64704 11.5883C6.45983 11.5883 6.28029 11.5139 6.14791 11.3815C6.01553 11.2491 5.94116 11.0696 5.94116 10.8824V7.82355C5.94116 7.32432 6.13948 6.84554 6.49249 6.49253C6.8455 6.13952 7.32428 5.9412 7.82352 5.9412H11.1176V6.41179C11.1176 6.41179 11.1176 6.38314 11.1176 6.88237V7.35296H7.82352C7.69871 7.35296 7.57901 7.40254 7.49076 7.49079C7.40251 7.57905 7.35293 7.69874 7.35293 7.82355V10.8824Z" fill="#3D4561"/>
</g>
<path id="Vector_5" d="M17.6276 8.13724V5.94116L21.4707 9.7843L17.6276 13.6274V11.3765C14.8825 11.3765 12.9609 12.2549 11.5883 14.1765C12.1374 11.4314 13.7844 8.68626 17.6276 8.13724Z" fill="#3D4561"/>
</g>
</svg>
