<svg width="17" height="16" viewBox="0 0 17 16" fill="none" xmlns="http://www.w3.org/2000/svg">
<g clip-path="url(#clip0_134_126)">
<path fill-rule="evenodd" clip-rule="evenodd" d="M2.35317 10.118C2.35317 9.93084 2.35317 5.64746 2.35317 5.64746H1.88258H0.941406C0.941406 5.64746 0.941406 9.93084 0.941406 10.118V13.1769C0.941406 13.6761 1.13973 14.1549 1.49273 14.5079C1.84574 14.8609 2.32453 15.0592 2.82376 15.0592H12.2355C12.7348 15.0592 13.2135 14.8609 13.5665 14.5079C13.9196 14.1549 14.1179 13.6761 14.1179 13.1769V12.2357H13.6473C13.6473 12.2357 13.3639 12.2357 13.1767 12.2357C12.9895 12.2357 12.708 12.2339 12.7061 12.2357V13.1769C12.7061 13.3017 12.6565 13.4214 12.5683 13.5096C12.48 13.5979 12.3603 13.6475 12.2355 13.6475H2.82376C2.69895 13.6475 2.57926 13.5979 2.491 13.5096C2.40275 13.4214 2.35317 13.3017 2.35317 13.1769V10.118Z" fill="#3D4561"/>
<path fill-rule="evenodd" clip-rule="evenodd" d="M2.35317 10.118C2.35317 9.93084 2.35317 5.64746 2.35317 5.64746H1.88258H0.941406C0.941406 5.64746 0.941406 9.93084 0.941406 10.118V13.1769C0.941406 13.6761 1.13973 14.1549 1.49273 14.5079C1.84574 14.8609 2.32453 15.0592 2.82376 15.0592H12.2355C12.7348 15.0592 13.2135 14.8609 13.5665 14.5079C13.9196 14.1549 14.1179 13.6761 14.1179 13.1769V12.2357H13.6473C13.6473 12.2357 13.3639 12.2357 13.1767 12.2357C12.9895 12.2357 12.708 12.2339 12.7061 12.2357V13.1769C12.7061 13.3017 12.6565 13.4214 12.5683 13.5096C12.48 13.5979 12.3603 13.6475 12.2355 13.6475H2.82376C2.69895 13.6475 2.57926 13.5979 2.491 13.5096C2.40275 13.4214 2.35317 13.3017 2.35317 13.1769V10.118Z" fill="#3D4561"/>
<path fill-rule="evenodd" clip-rule="evenodd" d="M12.7061 12.2356H14.1178L14.118 10.824C14.118 10.6368 14.0437 10.4573 13.9113 10.3249C13.7789 10.1925 13.5994 10.1182 13.4121 10.1182C13.2249 10.1182 13.0454 10.1925 12.913 10.3249C12.7806 10.4573 12.7063 10.6368 12.7063 10.824L12.7061 12.2356Z" fill="#3D4561"/>
<path fill-rule="evenodd" clip-rule="evenodd" d="M12.7061 12.2356H14.1178L14.118 10.824C14.118 10.6368 14.0437 10.4573 13.9113 10.3249C13.7789 10.1925 13.5994 10.1182 13.4121 10.1182C13.2249 10.1182 13.0454 10.1925 12.913 10.3249C12.7806 10.4573 12.7063 10.6368 12.7063 10.824L12.7061 12.2356Z" fill="#3D4561"/>
<path fill-rule="evenodd" clip-rule="evenodd" d="M2.82364 2.35219V2.34886C2.82364 2.34886 2.82364 2.34886 2.82364 2.35219C2.82364 2.35219 2.82364 1.4398 2.82364 0.940571L3.37497 0.940571C3.37497 0.940571 4.20677 0.940571 4.706 0.940571L7.76482 0.940571C7.95203 0.940571 8.13158 1.01494 8.26395 1.14732C8.39633 1.2797 8.4707 1.45924 8.4707 1.64645C8.4707 1.83366 8.39633 2.01321 8.26395 2.14559C8.13158 2.27797 7.95203 2.35234 7.76482 2.35234L4.706 2.35234C4.58119 2.35234 4.23541 2.3522 4.23541 2.3522L2.82364 2.35219Z" fill="#3D4561"/>
<path fill-rule="evenodd" clip-rule="evenodd" d="M2.82364 2.35219V2.34886C2.82364 2.34886 2.82364 2.34886 2.82364 2.35219C2.82364 2.35219 2.82364 1.4398 2.82364 0.940571C2.82364 0.940571 4.20677 0.940571 4.706 0.940571L7.76482 0.940571C7.95203 0.940571 8.13158 1.01494 8.26395 1.14732C8.39633 1.2797 8.4707 1.45924 8.4707 1.64645C8.4707 1.83366 8.39633 2.01321 8.26395 2.14559C8.13158 2.27797 7.95203 2.35234 7.76482 2.35234L4.706 2.35234C4.58119 2.35234 4.23541 2.3522 4.23541 2.3522L2.82364 2.35219Z" fill="#3D4561"/>
<path fill-rule="evenodd" clip-rule="evenodd" d="M2.35317 5.88201C2.35317 6.06922 2.2788 6.24876 2.14642 6.38114C2.01404 6.51352 1.8345 6.58789 1.64729 6.58789C1.46008 6.58789 1.28053 6.51352 1.14815 6.38114C1.01578 6.24876 0.941406 6.06922 0.941406 5.88201V2.82318C0.941406 2.32395 1.13973 1.84517 1.49273 1.49216C1.84574 1.13915 2.32453 0.940832 2.82376 0.940832H6.11788V1.41142C6.11788 1.41142 6.11788 1.38278 6.11788 1.88201V2.3526H2.82376C2.69895 2.3526 2.57926 2.40218 2.491 2.49043C2.40275 2.57868 2.35317 2.69838 2.35317 2.82318V5.88201Z" fill="#3D4561"/>
<path fill-rule="evenodd" clip-rule="evenodd" d="M2.35317 5.88201C2.35317 6.06922 2.2788 6.24876 2.14642 6.38114C2.01404 6.51352 1.8345 6.58789 1.64729 6.58789C1.46008 6.58789 1.28053 6.51352 1.14815 6.38114C1.01578 6.24876 0.941406 6.06922 0.941406 5.88201V2.82318C0.941406 2.32395 1.13973 1.84517 1.49273 1.49216C1.84574 1.13915 2.32453 0.940832 2.82376 0.940832H6.11788V1.41142C6.11788 1.41142 6.11788 1.38278 6.11788 1.88201V2.3526H2.82376C2.69895 2.3526 2.57926 2.40218 2.491 2.49043C2.40275 2.57868 2.35317 2.69838 2.35317 2.82318V5.88201Z" fill="#3D4561"/>
<path d="M12.6276 3.13748V0.941406L16.4707 4.78454L12.6276 8.62768V6.3767C9.88247 6.3767 7.9609 7.25513 6.58835 9.1767C7.13737 6.4316 8.78443 3.6865 12.6276 3.13748Z" fill="#3D4561"/>
</g>
<defs>
<clipPath id="clip0_134_126">
<rect width="16.9412" height="16" fill="white"/>
</clipPath>
</defs>
</svg>
