<svg width="17" height="16" viewBox="0 0 17 16" fill="none" xmlns="http://www.w3.org/2000/svg">
<path d="M16.7333 3.5448L12.9646 0.234303C12.8803 0.159785 12.7799 0.100706 12.6694 0.0604885C12.5589 0.0202706 12.4403 -0.000287994 12.3207 3.04741e-06H0.910714C0.669264 0.000250062 0.437784 0.0846149 0.267053 0.23459C0.0963214 0.384566 0.0002812 0.587906 0 0.800003V15.2C0.0002812 15.4121 0.0963214 15.6154 0.267053 15.7654C0.437784 15.9154 0.669264 15.9998 0.910714 16H16.0893C16.3307 15.9998 16.5622 15.9154 16.7329 15.7654C16.9037 15.6154 16.9997 15.4121 17 15.2V4.11044C17.0003 4.00534 16.9769 3.90124 16.9311 3.80415C16.8854 3.70706 16.8181 3.61891 16.7333 3.5448ZM10.9286 1.06667V4.26667H5.46428V1.06667H10.9286ZM15.7857 14.9333H1.21429V1.06667H4.25V5.33334H12.1429V1.06667H12.195L15.7857 4.2209V14.9333Z" fill="#3D4561"/>
</svg>