<svg width="26" height="26" viewBox="0 0 26 26" fill="none" xmlns="http://www.w3.org/2000/svg">
<g id="State=Hover">
<rect id="Rectangle 17774" x="1.25" y="1.25" width="23.5" height="23.5" rx="1.75" fill="#C9C9C9" stroke="#A5A5A5" stroke-width="0.5"/>
<path id="Vector" d="M15.1 12.9812L14.0313 11.9125L16.7125 8.49998H10.6188L9.1188 6.99998H18.25C18.5625 6.99998 18.7875 7.13748 18.925 7.41248C19.0625 7.68748 19.0375 7.94998 18.85 8.19998L15.1 12.9812ZM18.8313 20.95L14.5 16.6187V18.25C14.5 18.4625 14.428 18.6407 14.284 18.7847C14.14 18.9287 13.962 19.0005 13.75 19H12.25C12.0375 19 11.8595 18.928 11.716 18.784C11.5725 18.64 11.5005 18.462 11.5 18.25V13.6187L5.05005 7.16873L6.10005 6.09998L19.9 19.9L18.8313 20.95Z" fill="#3D4561"/>
</g>
</svg>
