<svg width="17" height="15" viewBox="0 0 17 15" fill="none" xmlns="http://www.w3.org/2000/svg">
<path d="M8.5 4.9C9.20875 4.9 9.88846 5.17393 10.3896 5.66152C10.8908 6.14912 11.1723 6.81044 11.1723 7.5C11.1723 8.18956 10.8908 8.85088 10.3896 9.33848C9.88846 9.82607 9.20875 10.1 8.5 10.1C7.79125 10.1 7.11154 9.82607 6.61038 9.33848C6.10922 8.85088 5.82767 8.18956 5.82767 7.5C5.82767 6.81044 6.10922 6.14912 6.61038 5.66152C7.11154 5.17393 7.79125 4.9 8.5 4.9ZM8.5 6.2C8.14563 6.2 7.80577 6.33696 7.55519 6.58076C7.30461 6.82456 7.16383 7.15522 7.16383 7.5C7.16383 7.84478 7.30461 8.17544 7.55519 8.41924C7.80577 8.66304 8.14563 8.8 8.5 8.8C8.85437 8.8 9.19423 8.66304 9.44481 8.41924C9.69539 8.17544 9.83617 7.84478 9.83617 7.5C9.83617 7.15522 9.69539 6.82456 9.44481 6.58076C9.19423 6.33696 8.85437 6.2 8.5 6.2ZM7.16383 14C6.99681 14 6.85652 13.883 6.82979 13.727L6.5826 12.0045C6.16171 11.842 5.80095 11.621 5.45354 11.361L3.79002 12.0175C3.64304 12.0695 3.46266 12.0175 3.38249 11.8745L2.04632 9.6255C1.95947 9.4825 1.99955 9.307 2.12649 9.2095L3.53614 8.1305L3.48938 7.5L3.53614 6.85L2.12649 5.7905C1.99955 5.693 1.95947 5.5175 2.04632 5.3745L3.38249 3.1255C3.46266 2.9825 3.64304 2.924 3.79002 2.9825L5.45354 3.6325C5.80095 3.379 6.16171 3.158 6.5826 2.9955L6.82979 1.273C6.85652 1.117 6.99681 1 7.16383 1H9.83617C10.0032 1 10.1435 1.117 10.1702 1.273L10.4174 2.9955C10.8383 3.158 11.1991 3.379 11.5465 3.6325L13.21 2.9825C13.357 2.924 13.5373 2.9825 13.6175 3.1255L14.9537 5.3745C15.0405 5.5175 15.0004 5.693 14.8735 5.7905L13.4639 6.85L13.5106 7.5L13.4639 8.15L14.8735 9.2095C15.0004 9.307 15.0405 9.4825 14.9537 9.6255L13.6175 11.8745C13.5373 12.0175 13.357 12.076 13.21 12.0175L11.5465 11.3675C11.1991 11.621 10.8383 11.842 10.4174 12.0045L10.1702 13.727C10.1435 13.883 10.0032 14 9.83617 14H7.16383ZM7.99894 2.3L7.75175 3.9965C6.95005 4.159 6.24188 4.575 5.72746 5.1535L4.11738 4.4775L3.61631 5.3225L5.02597 6.33C4.75874 7.0905 4.75874 7.916 5.02597 8.67L3.60963 9.684L4.1107 10.529L5.73414 9.853C6.24856 10.425 6.95005 10.841 7.74507 10.997L7.99226 12.7H9.00774L9.25493 11.0035C10.05 10.841 10.7514 10.425 11.2659 9.853L12.8893 10.529L13.3904 9.684L11.974 8.6765C12.2413 7.916 12.2413 7.0905 11.974 6.33L13.3837 5.3225L12.8826 4.4775L11.2725 5.1535C10.7581 4.575 10.05 4.159 9.24825 4.003L9.00106 2.3H7.99894Z" fill="#0C173A"/>
</svg>
