<svg width="20" height="20" viewBox="0 0 20 20" fill="none" xmlns="http://www.w3.org/2000/svg">
<path d="M7.146 7.074C7.3162 6.54724 7.62892 6.07788 8.0495 5.71795C8.47009 5.35802 8.98212 5.12157 9.52885 5.03479C10.0756 4.94802 10.6357 5.01432 11.147 5.22634C11.6584 5.43836 12.1011 5.78782 12.426 6.236C12.7513 6.68353 12.9466 7.21231 12.9901 7.76388C13.0337 8.31545 12.9238 8.86832 12.6727 9.36136C12.4217 9.8544 12.0391 10.2684 11.5675 10.5576C11.0958 10.8468 10.5533 10.9999 10 11V12M10 19C8.8181 19 7.64778 18.7672 6.55585 18.3149C5.46392 17.8626 4.47177 17.1997 3.63604 16.364C2.80031 15.5282 2.13738 14.5361 1.68508 13.4442C1.23279 12.3522 1 11.1819 1 10C1 8.8181 1.23279 7.64778 1.68508 6.55585C2.13738 5.46392 2.80031 4.47177 3.63604 3.63604C4.47177 2.80031 5.46392 2.13738 6.55585 1.68508C7.64778 1.23279 8.8181 1 10 1C12.3869 1 14.6761 1.94821 16.364 3.63604C18.0518 5.32387 19 7.61305 19 10C19 12.3869 18.0518 14.6761 16.364 16.364C14.6761 18.0518 12.3869 19 10 19ZM10.05 15V15.1H9.95V15H10.05Z" stroke="#3C424B" stroke-width="2" stroke-linecap="round" stroke-linejoin="round"/>
</svg>
