<svg width="16" height="16" viewBox="0 0 16 16" fill="none" xmlns="http://www.w3.org/2000/svg">
<path d="M2.66634 5.33333H13.333V3.33333H2.66634V5.33333ZM9.33301 12.6667V6.66667H6.66634V12.6667H9.33301ZM10.6663 12.6667H13.333V6.66667H10.6663V12.6667ZM5.33301 12.6667V6.66667H2.66634V12.6667H5.33301ZM1.99967 2H13.9997C14.1765 2 14.3461 2.07024 14.4711 2.19526C14.5961 2.32029 14.6663 2.48986 14.6663 2.66667V13.3333C14.6663 13.5101 14.5961 13.6797 14.4711 13.8047C14.3461 13.9298 14.1765 14 13.9997 14H1.99967C1.82286 14 1.65329 13.9298 1.52827 13.8047C1.40325 13.6797 1.33301 13.5101 1.33301 13.3333V2.66667C1.33301 2.48986 1.40325 2.32029 1.52827 2.19526C1.65329 2.07024 1.82286 2 1.99967 2Z" fill="#3D4561"/>
</svg>
