<svg width="19" height="18" viewBox="0 0 19 18" fill="none" xmlns="http://www.w3.org/2000/svg">
<path d="M12.2713 10.4995H11.6459L11.4242 10.297C12.3742 9.24699 12.8651 7.81449 12.5959 6.29199C12.2238 4.20699 10.3872 2.54199 8.1705 2.28699C4.82175 1.89699 2.00341 4.56699 2.41508 7.73949C2.68425 9.83949 4.44175 11.5795 6.64258 11.932C8.24966 12.187 9.76174 11.722 10.8701 10.822L11.0838 11.032V11.6245L14.4484 14.812C14.773 15.1195 15.3034 15.1195 15.628 14.812C15.9526 14.5045 15.9526 14.002 15.628 13.6945L12.2713 10.4995ZM7.52133 10.4995C5.55008 10.4995 3.95883 8.99199 3.95883 7.12449C3.95883 5.25699 5.55008 3.74949 7.52133 3.74949C9.49258 3.74949 11.0838 5.25699 11.0838 7.12449C11.0838 8.99199 9.49258 10.4995 7.52133 10.4995Z" fill="#3D4561"/>
</svg>
