<svg width="16" height="20" viewBox="0 0 16 20" fill="none" xmlns="http://www.w3.org/2000/svg">
<path d="M1.33334 18.9974C1.33134 19.2602 1.43365 19.513 1.61783 19.7005C1.802 19.888 2.05301 19.9947 2.3158 19.9974H13.6842C13.947 19.9947 14.198 19.888 14.3822 19.7005C14.5664 19.513 14.6687 19.2602 14.6667 18.9974V5.66406H1.33334V18.9974ZM2.66668 6.9974H13.3333V18.6641H2.66668V6.9974Z" fill="#49506B"/>
<path d="M5.66665 8.33594H4.33331V16.6693H5.66665V8.33594Z" fill="#49506B"/>
<path d="M8.66665 8.33594H7.33331V16.6693H8.66665V8.33594Z" fill="#49506B"/>
<path d="M11.6666 8.33594H10.3333V16.6693H11.6666V8.33594Z" fill="#49506B"/>
<path d="M11 3V1C11 0.43925 10.6047 0 10.1 0H5.9C5.39533 0 5 0.43925 5 1V3H0V4.33333H16V3H11ZM6.33333 1.33333H9.66667V3H6.33333V1.33333Z" fill="#49506B"/>
</svg>
