<svg width="26" height="26" viewBox="0 0 26 26" fill="none" xmlns="http://www.w3.org/2000/svg">
<g id="State=Default">
<rect id="Rectangle 17775" x="1.25" y="1.25" width="23.5" height="23.5" rx="1.75" fill="white" stroke="#A5A5A5" stroke-width="0.5"/>
<path id="Vector" d="M18.9999 14.3334C18.8231 14.3334 18.6535 14.4036 18.5285 14.5286C18.4035 14.6537 18.3333 14.8232 18.3333 15V17.6667C18.3333 17.8435 18.263 18.0131 18.138 18.1381C18.013 18.2631 17.8434 18.3334 17.6666 18.3334H8.33325C8.15644 18.3334 7.98687 18.2631 7.86185 18.1381C7.73682 18.0131 7.66659 17.8435 7.66659 17.6667V15C7.66659 14.8232 7.59635 14.6537 7.47132 14.5286C7.3463 14.4036 7.17673 14.3334 6.99992 14.3334C6.82311 14.3334 6.65354 14.4036 6.52851 14.5286C6.40349 14.6537 6.33325 14.8232 6.33325 15V17.6667C6.33325 18.1971 6.54397 18.7058 6.91904 19.0809C7.29411 19.456 7.80282 19.6667 8.33325 19.6667H17.6666C18.197 19.6667 18.7057 19.456 19.0808 19.0809C19.4559 18.7058 19.6666 18.1971 19.6666 17.6667V15C19.6666 14.8232 19.5963 14.6537 19.4713 14.5286C19.3463 14.4036 19.1767 14.3334 18.9999 14.3334ZM12.5266 15.4734C12.59 15.5341 12.6648 15.5816 12.7466 15.6134C12.8264 15.6486 12.9127 15.6669 12.9999 15.6669C13.0872 15.6669 13.1735 15.6486 13.2533 15.6134C13.3351 15.5816 13.4098 15.5341 13.4733 15.4734L16.1399 12.8067C16.2655 12.6812 16.336 12.5109 16.336 12.3334C16.336 12.1558 16.2655 11.9856 16.1399 11.86C16.0144 11.7345 15.8441 11.664 15.6666 11.664C15.489 11.664 15.3188 11.7345 15.1933 11.86L13.6666 13.3934V7.00004C13.6666 6.82323 13.5963 6.65366 13.4713 6.52864C13.3463 6.40361 13.1767 6.33337 12.9999 6.33337C12.8231 6.33337 12.6535 6.40361 12.5285 6.52864C12.4035 6.65366 12.3333 6.82323 12.3333 7.00004V13.3934L10.8066 11.86C10.7444 11.7979 10.6706 11.7486 10.5894 11.7149C10.5082 11.6813 10.4212 11.664 10.3333 11.664C10.2453 11.664 10.1583 11.6813 10.0771 11.7149C9.99587 11.7486 9.92208 11.7979 9.85992 11.86C9.79776 11.9222 9.74845 11.996 9.71481 12.0772C9.68117 12.1584 9.66386 12.2455 9.66386 12.3334C9.66386 12.4213 9.68117 12.5083 9.71481 12.5895C9.74845 12.6708 9.79776 12.7445 9.85992 12.8067L12.5266 15.4734Z" fill="#3D4561"/>
</g>
</svg>
