<svg width="16" height="16" viewBox="0 0 16 16" fill="none" xmlns="http://www.w3.org/2000/svg">
<path d="M14.2456 1.125H1.4944C1.26382 1.125 1.04269 1.22291 0.879641 1.3972C0.716597 1.57149 0.625 1.80787 0.625 2.05435V13.8261C0.625 14.2369 0.777662 14.6309 1.0494 14.9213C1.32114 15.2118 1.6897 15.375 2.074 15.375H4.972C5.3563 15.375 5.72486 15.2118 5.9966 14.9213C6.26834 14.6309 6.421 14.2369 6.421 13.8261V10.4185H9.319V11.3478C9.319 11.7586 9.47166 12.1526 9.7434 12.4431C10.0151 12.7336 10.3837 12.8967 10.768 12.8967H13.666C14.0503 12.8967 14.4189 12.7336 14.6906 12.4431C14.9623 12.1526 15.115 11.7586 15.115 11.3478V2.05435C15.115 1.80787 15.0234 1.57149 14.8604 1.3972C14.6973 1.22291 14.4762 1.125 14.2456 1.125ZM13.3762 6.08152H11.0578V2.9837H13.3762V6.08152ZM4.6822 2.9837V6.08152H2.3638V2.9837H4.6822ZM4.6822 13.5163H2.3638V7.94022H4.6822V13.5163ZM6.421 8.55978V2.9837H9.319V8.55978H6.421ZM11.0578 11.038V7.94022H13.3762V11.038H11.0578Z" fill="#3D4561" stroke="#C9C9C9" stroke-width="0.5"/>
</svg>
