<svg width="26" height="26" viewBox="0 0 26 26" fill="none" xmlns="http://www.w3.org/2000/svg">
<g id="State=Default">
<rect id="Rectangle 17775" x="1.25" y="1.25" width="23.5" height="23.5" rx="1.75" fill="white" stroke="#A5A5A5" stroke-width="0.5"/>
<path id="Vector" d="M19.2456 6.125H6.4944C6.26382 6.125 6.04269 6.22291 5.87964 6.3972C5.7166 6.57149 5.625 6.80787 5.625 7.05435V18.8261C5.625 19.2369 5.77766 19.6309 6.0494 19.9213C6.32114 20.2118 6.6897 20.375 7.074 20.375H9.972C10.3563 20.375 10.7249 20.2118 10.9966 19.9213C11.2683 19.6309 11.421 19.2369 11.421 18.8261V15.4185H14.319V16.3478C14.319 16.7586 14.4717 17.1526 14.7434 17.4431C15.0151 17.7336 15.3837 17.8967 15.768 17.8967H18.666C19.0503 17.8967 19.4189 17.7336 19.6906 17.4431C19.9623 17.1526 20.115 16.7586 20.115 16.3478V7.05435C20.115 6.80787 20.0234 6.57149 19.8604 6.3972C19.6973 6.22291 19.4762 6.125 19.2456 6.125ZM18.3762 11.0815H16.0578V7.9837H18.3762V11.0815ZM9.6822 7.9837V11.0815H7.3638V7.9837H9.6822ZM9.6822 18.5163H7.3638V12.9402H9.6822V18.5163ZM11.421 13.5598V7.9837H14.319V13.5598H11.421ZM16.0578 16.038V12.9402H18.3762V16.038H16.0578Z" fill="#3D4561" stroke="#C9C9C9" stroke-width="0.5"/>
</g>
</svg>
