<svg xmlns="http://www.w3.org/2000/svg" xmlns:xlink="http://www.w3.org/1999/xlink" width="159.685" height="23.722" viewBox="0 0 159.685 23.722">
  <defs>
    <linearGradient id="linear-gradient" x1="0.457" y1="0.768" x2="0.558" y2="0.168" gradientUnits="objectBoundingBox">
      <stop offset="0" stop-color="#7d9931"/>
      <stop offset="0.282" stop-color="#8bab33"/>
      <stop offset="0.727" stop-color="#9dc436"/>
      <stop offset="1" stop-color="#a4cd38"/>
    </linearGradient>
    <linearGradient id="linear-gradient-2" x1="-2270.98" y1="-397.062" x2="-2270.75" y2="-397.385" xlink:href="#linear-gradient"/>
    <linearGradient id="linear-gradient-3" x1="-79.225" y1="-1641.11" x2="-79.127" y2="-1641.69" xlink:href="#linear-gradient"/>
  </defs>
  <g id="Logo" transform="translate(-175.818 -135.728)">
    <g id="Icon" transform="translate(175.818 136.08)">
      <path id="Path_27" data-name="Path 27" d="M192.156,153.4a8.592,8.592,0,1,1,6.964-8.113l-3.026-.117a5.57,5.57,0,1,0-6.376,5.295,2.762,2.762,0,0,1,2.3,2.2Z" transform="translate(-178.589 -136.371)" fill="#a4cd38"/>
      <path id="Path_28" data-name="Path 28" d="M187.365,164.4a8.6,8.6,0,0,1-6.942-15.685l1.412,2.678a5.571,5.571,0,1,0,7.773,2.875,2.763,2.763,0,0,1,.761-3.091l.562-.488a8.6,8.6,0,0,1-3.566,13.71Z" transform="translate(-175.818 -141.957)" fill="#a4cd38"/>
      <path id="Path_29" data-name="Path 29" d="M199.912,163.577a8.625,8.625,0,0,1-7.486-.817l1.613-2.562a5.571,5.571,0,1,0-1.4-8.171,2.764,2.764,0,0,1-3.058.887l-.7-.243a8.591,8.591,0,1,1,11.031,10.906Z" transform="translate(-181.73 -141.132)" fill="#a4cd38"/>
      <path id="Path_30" data-name="Path 30" d="M207.5,146.469a8.523,8.523,0,0,0-3.659-1.6,5.574,5.574,0,0,0-3.2-2.612,10.853,10.853,0,0,1,1.642-.125,11.447,11.447,0,0,1,3.854.679,8.606,8.606,0,0,1,.921,1.838A8.719,8.719,0,0,1,207.5,146.469Z" transform="translate(-187.05 -138.976)" fill="url(#linear-gradient)"/>
      <path id="Path_31" data-name="Path 31" d="M179.986,150.135a8.526,8.526,0,0,0,.438,3.971,5.574,5.574,0,0,0-.66,4.082,10.93,10.93,0,0,1-.931-1.36,11.427,11.427,0,0,1-1.339-3.677,8.6,8.6,0,0,1,1.132-1.717,8.717,8.717,0,0,1,1.36-1.3Z" transform="translate(-176.576 -142.6)" fill="url(#linear-gradient-2)"/>
      <path id="Path_32" data-name="Path 32" d="M197.677,173.885a8.511,8.511,0,0,0,3.219-2.367,5.572,5.572,0,0,0,3.865-1.469,10.892,10.892,0,0,1-.712,1.486,11.444,11.444,0,0,1-2.515,3,8.6,8.6,0,0,1-2.053-.121A8.712,8.712,0,0,1,197.677,173.885Z" transform="translate(-185.71 -151.612)" fill="url(#linear-gradient-3)"/>
    </g>
    <g id="CWSuite" transform="translate(205.174 135.728)">
      <path id="Path_33" data-name="Path 33" d="M245.807,150.082h4.89a10.529,10.529,0,0,1-3.356,6.808,10.183,10.183,0,0,1-7.031,2.557c-6.393.1-10.963-4.922-10.867-11.825-.1-6.935,4.474-11.985,10.867-11.89a10.183,10.183,0,0,1,7.031,2.557A10.528,10.528,0,0,1,250.7,145.1h-4.89c-.7-3.676-3.26-5.21-5.593-5.21-2.847,0-5.945,2.205-5.945,7.7,0,5.529,3.1,7.7,5.945,7.7C242.612,155.291,245.1,153.821,245.807,150.082Z" transform="translate(-229.441 -135.728)" fill="#0c173a"/>
      <path id="Path_34" data-name="Path 34" d="M288.023,159.361l-4.155-15.469-4.155,15.469h-5.466l-5.561-22.693H273.7l3.452,16.875,4.507-16.875h4.41l4.507,16.875,3.484-16.875h4.986l-5.529,22.693Z" transform="translate(-247.201 -136.153)" fill="#0c173a"/>
      <path id="Path_35" data-name="Path 35" d="M336,151.971h4.922c0,2.461,1.662,3.675,4.474,3.675,2.653,0,4.38-.99,4.38-3.131a2,2,0,0,0-1.246-1.982,6.548,6.548,0,0,0-1.6-.575c-.863-.256-1.247-.351-2.429-.607-.7-.16-1.279-.32-1.758-.416a18.03,18.03,0,0,1-3.2-1.15,5.472,5.472,0,0,1-3.2-5.146,6.064,6.064,0,0,1,2.4-5.018,11.615,11.615,0,0,1,12.881.128,6.554,6.554,0,0,1,2.493,5.369h-4.666c0-2.141-1.566-3.515-4.283-3.515-2.429,0-4.091,1.023-4.091,2.908a2.107,2.107,0,0,0,1.278,1.949,5.6,5.6,0,0,0,1.087.416c1.016.312,1.568.406,3.133.766.672.155,1.246.288,1.662.416a16.2,16.2,0,0,1,3.1,1.087,6.338,6.338,0,0,1,2.3,1.916,6.143,6.143,0,0,1,.863,3.26c0,3.708-2.717,7.127-9.2,7.127C339.258,159.45,336,156.445,336,151.971Z" transform="translate(-277.664 -135.731)" fill="#0c173a"/>
      <path id="Path_36" data-name="Path 36" d="M378.05,147.819v9.429c0,2.716.9,3.8,2.847,3.8,2.269,0,3.613-1.566,3.613-4.986v-8.246h4.474v16.588H384.51v-2.748c-.543,1.375-1.981,3.164-5.369,3.164-3.449,0-5.593-1.949-5.593-6.3V147.819Z" transform="translate(-294.655 -141.2)" fill="#0c173a"/>
      <path id="Path_37" data-name="Path 37" d="M411.016,147.819v4h-4.538v-4Zm-4.506,16.588V153.67h4.474v10.737Z" transform="translate(-309.558 -141.2)" fill="#0c173a"/>
      <path id="Path_38" data-name="Path 38" d="M428.119,148.1v-3.675H424.1v-4.109l-4.475,4.109h-2.08V148.1h4.131l-2.049.893V155.1c0,4.25,1.5,6.04,5.336,6.04.735,0,1.664-.065,2.78-.16v-3.613l-.16.031a4.317,4.317,0,0,1-1.18.129c-1.665,0-2.3-.834-2.3-2.91V148.1Z" transform="translate(-314.565 -137.803)" fill="#0c173a"/>
      <path id="Path_39" data-name="Path 39" d="M453.863,157.1H441.878c.351,2.589,1.79,4.027,3.867,4.027a3.571,3.571,0,0,0,3.23-1.854h4.474c-1.055,3.292-3.931,5.21-7.734,5.21a7.876,7.876,0,0,1-6.1-2.333,8.862,8.862,0,0,1-2.173-6.232c0-5.018,2.909-8.853,8.278-8.853a7.661,7.661,0,0,1,5.977,2.4,9.09,9.09,0,0,1,2.205,6.456Zm-11.985-2.589h7.575c-.351-2.683-1.694-4.059-3.739-4.059C443.636,150.448,442.229,151.918,441.878,154.507Z" transform="translate(-323.568 -140.856)" fill="#0c173a"/>
    </g>
  </g>
</svg>
