<svg width="26" height="26" viewBox="0 0 26 26" fill="none" xmlns="http://www.w3.org/2000/svg">
<rect x="1.25" y="1.25" width="23.5" height="23.5" rx="1.75" fill="#C9C9C9" stroke="#A5A5A5" stroke-width="0.5"/>
<path d="M19.75 10.75V17.5C19.75 18.0967 19.5129 18.669 19.091 19.091C18.669 19.5129 18.0967 19.75 17.5 19.75H7.75C7.15326 19.75 6.58097 19.5129 6.15901 19.091C5.73705 18.669 5.5 18.0967 5.5 17.5V10.75C5.5 9.91746 5.95 9.18996 6.625 8.79996L12.625 5.33496L18.625 8.79996C19.3 9.18996 19.75 9.91746 19.75 10.75ZM6.79 9.60246L12.625 13.375L18.46 9.60246L12.625 6.19746L6.79 9.60246ZM12.625 14.2825L6.3475 10.21C6.2875 10.375 6.25 10.5625 6.25 10.75V17.5C6.25 17.8978 6.40804 18.2793 6.68934 18.5606C6.97064 18.8419 7.35218 19 7.75 19H17.5C17.8978 19 18.2794 18.8419 18.5607 18.5606C18.842 18.2793 19 17.8978 19 17.5V10.75C19 10.5625 18.9625 10.375 18.9025 10.21L12.625 14.2825Z" fill="#3D4561" stroke="#3D4561"/>
</svg>
