<svg width="13" height="30" viewBox="0 0 13 30" fill="none" xmlns="http://www.w3.org/2000/svg">
<path fill-rule="evenodd" clip-rule="evenodd" d="M11 0.75C10.8674 0.75 10.7402 0.829018 10.6464 0.96967C10.5527 1.11032 10.5 1.30109 10.5 1.5L0.5 15L10.5 28.5C10.5 28.6989 10.5527 28.8897 10.6464 29.0303C10.7402 29.171 10.8674 29.25 11 29.25C11.1326 29.25 11.2598 29.171 11.3536 29.0303C11.4473 28.8897 11.5 28.6989 11.5 28.5L1.5 15L11.5 1.5C11.5 1.30109 11.4473 1.11032 11.3536 0.96967C11.2598 0.829018 11.1326 0.75 11 0.75Z" fill="#D1D1D1"/>
</svg>
