<svg width="14" height="14" viewBox="0 0 14 14" fill="none" xmlns="http://www.w3.org/2000/svg">
<path d="M9.62449 8.49998H9.03199L8.82199 8.29748C9.72199 7.24748 10.187 5.81498 9.93199 4.29248C9.57949 2.20748 7.83949 0.542481 5.73949 0.287481C2.56699 -0.102519 -0.103007 2.56748 0.286993 5.73998C0.541993 7.83998 2.20699 9.57998 4.29199 9.93248C5.81449 10.1875 7.24699 9.72248 8.29699 8.82248L8.49949 9.03248V9.62498L11.687 12.8125C11.9945 13.12 12.497 13.12 12.8045 12.8125C13.112 12.505 13.112 12.0025 12.8045 11.695L9.62449 8.49998ZM5.12449 8.49998C3.25699 8.49998 1.74949 6.99248 1.74949 5.12498C1.74949 3.25748 3.25699 1.74998 5.12449 1.74998C6.99199 1.74998 8.49949 3.25748 8.49949 5.12498C8.49949 6.99248 6.99199 8.49998 5.12449 8.49998Z" fill="#3D4561"/>
</svg>
