<svg width="10" height="10" viewBox="0 0 10 10" fill="none" xmlns="http://www.w3.org/2000/svg">
<path d="M3.07512 1.24579C3.1235 1.19728 3.18097 1.1588 3.24425 1.13255C3.30753 1.10629 3.37536 1.09277 3.44387 1.09277C3.51238 1.09277 3.58021 1.10629 3.64349 1.13255C3.70676 1.1588 3.76424 1.19728 3.81262 1.24579L7.27512 4.70829C7.31375 4.74683 7.34439 4.79262 7.3653 4.84303C7.38621 4.89343 7.39697 4.94747 7.39697 5.00204C7.39697 5.05661 7.38621 5.11064 7.3653 5.16105C7.34439 5.21145 7.31375 5.25724 7.27512 5.29579L3.81262 8.75829C3.60845 8.96245 3.27929 8.96245 3.07512 8.75829C2.87095 8.55412 2.87095 8.22495 3.07512 8.02079L6.09179 4.99995L3.07095 1.97912C2.87095 1.77912 2.87095 1.44579 3.07512 1.24579Z" fill="#3D4561"/>
</svg>
