<svg width="12" height="12" viewBox="0 0 12 12" fill="none" xmlns="http://www.w3.org/2000/svg">
<path d="M8 5.99984L5.33333 3.33317V5.33317H0V6.6665H5.33333V8.6665M12 9.99984V1.99984C12 1.25984 11.4 0.666504 10.6667 0.666504H2.66667C2.31304 0.666504 1.97391 0.80698 1.72386 1.05703C1.47381 1.30708 1.33333 1.64622 1.33333 1.99984V3.99984H2.66667V1.99984H10.6667V9.99984H2.66667V7.99984H1.33333V9.99984C1.33333 10.3535 1.47381 10.6926 1.72386 10.9426C1.97391 11.1927 2.31304 11.3332 2.66667 11.3332H10.6667C11.0203 11.3332 11.3594 11.1927 11.6095 10.9426C11.8595 10.6926 12 10.3535 12 9.99984Z" fill="#0C173A"/>
</svg>
