<svg width="12" height="13" viewBox="0 0 12 13" fill="none" xmlns="http://www.w3.org/2000/svg">
<path d="M7.99999 11.2533C8.02665 11.4533 7.95999 11.6667 7.80665 11.8067C7.54665 12.0667 7.12665 12.0667 6.86665 11.8067L4.19332 9.13333C4.03999 8.98 3.97332 8.77333 3.99999 8.58V5.16667L0.806653 1.08C0.579986 0.793333 0.63332 0.373333 0.919987 0.146667C1.04665 0.0533333 1.18665 0 1.33332 0H10.6667C10.8133 0 10.9533 0.0533333 11.08 0.146667C11.3667 0.373333 11.42 0.793333 11.1933 1.08L7.99999 5.16667V11.2533ZM2.69332 1.33333L5.33332 4.70667V8.38667L6.66665 9.72V4.7L9.30665 1.33333H2.69332Z" fill="#0C173A"/>
</svg>
