<!-- <svg width="34" height="34" viewBox="0 0 34 34" fill="none" xmlns="http://www.w3.org/2000/svg">
<path d="M0.333339 17C0.333339 14.8113 0.764434 12.644 1.60201 10.622C2.43959 8.59986 3.66725 6.76254 5.21489 5.2149C8.3405 2.08929 12.5797 0.333343 17 0.333343C21.4203 0.333343 25.6595 2.08929 28.7851 5.2149C31.9107 8.3405 33.6667 12.5797 33.6667 17C33.6667 19.1887 33.2356 21.356 32.398 23.3781C31.5604 25.4002 30.3328 27.2375 28.7851 28.7851C27.2375 30.3328 25.4002 31.5604 23.3781 32.398C21.356 33.2356 19.1887 33.6667 17 33.6667C12.5797 33.6667 8.3405 31.9107 5.21489 28.7851C2.08929 25.6595 0.333339 21.4203 0.333339 17ZM13.6667 25.3333L22 17L13.6667 8.66668L13.6667 25.3333Z" fill="#0C173A"/>
</svg> -->
<svg width="40" height="40" viewBox="0 0 40 40" fill="none" xmlns="http://www.w3.org/2000/svg">
<circle cx="20" cy="20" r="16.6667" fill="white"/>
<path d="M3.33334 20C3.33334 17.8113 3.76443 15.644 4.60201 13.622C5.43959 11.5999 6.66725 9.76254 8.21489 8.2149C11.3405 5.08929 15.5797 3.33334 20 3.33334C24.4203 3.33334 28.6595 5.08929 31.7851 8.2149C34.9107 11.3405 36.6667 15.5797 36.6667 20C36.6667 22.1887 36.2356 24.356 35.398 26.3781C34.5604 28.4002 33.3328 30.2375 31.7851 31.7851C30.2375 33.3328 28.4002 34.5604 26.3781 35.398C24.356 36.2356 22.1887 36.6667 20 36.6667C15.5797 36.6667 11.3405 34.9107 8.21489 31.7851C5.08929 28.6595 3.33334 24.4203 3.33334 20ZM16.6667 28.3333L25 20L16.6667 11.6667L16.6667 28.3333Z" fill="#0C173A"/>
</svg>