<!-- <svg width="34" height="34" viewBox="0 0 34 34" fill="none" xmlns="http://www.w3.org/2000/svg">
<path d="M33.6666 17C33.6666 19.1887 33.2356 21.356 32.398 23.378C31.5604 25.4001 30.3327 27.2375 28.7851 28.7851C25.6595 31.9107 21.4203 33.6667 17 33.6667C12.5797 33.6667 8.34047 31.9107 5.21487 28.7851C2.08926 25.6595 0.333312 21.4203 0.333312 17C0.333312 14.8113 0.764408 12.644 1.60199 10.6219C2.43956 8.59984 3.66722 6.76252 5.21487 5.21488C6.76251 3.66723 8.59983 2.43957 10.6219 1.602C12.644 0.764418 14.8113 0.333323 17 0.333323C21.4203 0.333323 25.6595 2.08927 28.7851 5.21488C31.9107 8.34048 33.6666 12.5797 33.6666 17M20.3333 8.66666L12 17L20.3333 25.3333L20.3333 8.66666Z" fill="#0C173A"/>
</svg> -->
<svg width="40" height="40" viewBox="0 0 40 40" fill="none" xmlns="http://www.w3.org/2000/svg">
<circle cx="20" cy="20" r="16.6667" transform="rotate(180 20 20)" fill="white"/>
<path d="M36.6666 20C36.6666 22.1887 36.2356 24.356 35.398 26.378C34.5604 28.4001 33.3327 30.2375 31.7851 31.7851C28.6595 34.9107 24.4203 36.6667 20 36.6667C15.5797 36.6667 11.3405 34.9107 8.21487 31.7851C5.08926 28.6595 3.33331 24.4203 3.33331 20C3.33331 17.8113 3.76441 15.644 4.60199 13.6219C5.43956 11.5998 6.66722 9.76252 8.21487 8.21488C9.76251 6.66723 11.5998 5.43957 13.6219 4.602C15.644 3.76442 17.8113 3.33332 20 3.33332C24.4203 3.33332 28.6595 5.08927 31.7851 8.21488C34.9107 11.3405 36.6666 15.5797 36.6666 20M23.3333 11.6667L15 20L23.3333 28.3333L23.3333 11.6667Z" fill="#0C173A"/>
</svg>
