<svg width="26" height="26" viewBox="0 0 26 26" fill="none" xmlns="http://www.w3.org/2000/svg">
<g id="State=Default">
<rect id="Rectangle 17775" x="1.25" y="1.25" width="23.5" height="23.5" rx="1.75" fill="white" stroke="#A5A5A5" stroke-width="0.5"/>
<path id="Vector" d="M17 16.5H17.75C18.0812 16.499 18.3986 16.367 18.6328 16.1328C18.867 15.8986 18.999 15.5812 19 15.25V10.25C18.999 9.91878 18.867 9.60142 18.6328 9.36721C18.3986 9.133 18.0812 9.00099 17.75 9H8.25C7.91878 9.00099 7.60142 9.133 7.36721 9.36721C7.133 9.60142 7.00099 9.91878 7 10.25V15.25C7.00099 15.5812 7.133 15.8986 7.36721 16.1328C7.60142 16.367 7.91878 16.499 8.25 16.5H9" stroke="#3D4561" stroke-width="1.4" stroke-linejoin="round"/>
<path id="Vector_2" d="M16.24 12.5H9.76C9.34026 12.5 9 12.8403 9 13.26V18.24C9 18.6597 9.34026 19 9.76 19H16.24C16.6597 19 17 18.6597 17 18.24V13.26C17 12.8403 16.6597 12.5 16.24 12.5Z" stroke="#3D4561" stroke-width="1.4" stroke-linejoin="round"/>
<path id="Vector_3" d="M17 9V8.25C16.999 7.91878 16.867 7.60142 16.6328 7.36721C16.3986 7.133 16.0812 7.00099 15.75 7H10.25C9.91878 7.00099 9.60142 7.133 9.36721 7.36721C9.133 7.60142 9.00099 7.91878 9 8.25V9" stroke="#3D4561" stroke-width="1.4" stroke-linejoin="round"/>
</g>
</svg>
