<svg width="16" height="14" viewBox="0 0 16 14" fill="none" xmlns="http://www.w3.org/2000/svg">
<path d="M13.501 4.40406H12.759V0.789062H3.834V4.40406H3.09C2.80109 4.39996 2.51419 4.45282 2.2457 4.55961C1.97722 4.66639 1.7324 4.82503 1.52522 5.02644C1.31805 5.22786 1.15258 5.46811 1.03827 5.73348C0.92396 5.99886 0.863044 6.28415 0.859001 6.57306V10.9111H3.834V13.8031H12.759V10.9111H15.734V6.57306C15.73 6.28398 15.669 5.99852 15.5545 5.73302C15.4401 5.46751 15.2745 5.22717 15.0671 5.02573C14.8597 4.82428 14.6146 4.66569 14.3459 4.55902C14.0772 4.45236 13.7901 4.3997 13.501 4.40406V4.40406ZM5.321 2.23506H11.27V4.40406H5.321V2.23506ZM11.27 10.9111V12.3571H5.321V9.46506H11.27V10.9111ZM12.759 9.46506V8.01906H3.834V9.46506H2.346V6.57306C2.34942 6.37873 2.42957 6.19364 2.56896 6.05819C2.70835 5.92274 2.89565 5.84792 3.09 5.85006H13.501C13.6954 5.84792 13.8827 5.92274 14.022 6.05819C14.1614 6.19364 14.2416 6.37873 14.245 6.57306V9.46506H12.759Z" fill="#3D4561"/>
</svg>
