<svg width="17" height="14" viewBox="0 0 17 14" fill="none" xmlns="http://www.w3.org/2000/svg">
<path d="M13.82 4.40406H13.0617V0.789062H3.94035V4.40406H3.17998C2.88471 4.39996 2.59151 4.45282 2.31711 4.55961C2.04272 4.66639 1.79251 4.82503 1.58078 5.02644C1.36905 5.22786 1.19994 5.46811 1.08312 5.73348C0.96629 5.99886 0.904034 6.28415 0.899902 6.57306V10.9111H3.94035V13.8031H13.0617V10.9111H16.1022V6.57306C16.098 6.28398 16.0357 5.99852 15.9187 5.73302C15.8018 5.46751 15.6325 5.22717 15.4206 5.02573C15.2086 4.82428 14.9582 4.66569 14.6835 4.55902C14.4089 4.45236 14.1155 4.3997 13.82 4.40406ZM5.46007 2.23506H11.5399V4.40406H5.46007V2.23506ZM11.5399 10.9111V12.3571H5.46007V9.46506H11.5399V10.9111ZM13.0617 9.46506V8.01906H3.94035V9.46506H2.41962V6.57306C2.42311 6.37873 2.50503 6.19364 2.64748 6.05819C2.78993 5.92274 2.98136 5.84792 3.17998 5.85006H13.82C14.0187 5.84792 14.2101 5.92274 14.3525 6.05819C14.495 6.19364 14.5769 6.37873 14.5804 6.57306V9.46506H13.0617Z" fill="#3D4561"/>
</svg>