<svg width="18" height="21" viewBox="0 0 18 21" fill="none" xmlns="http://www.w3.org/2000/svg">
<path d="M3 20C2.71667 20 2.479 19.904 2.287 19.712C2.095 19.52 1.99933 19.2827 2 19V16.95C1.7 16.6167 1.45833 16.2457 1.275 15.837C1.09167 15.4283 1 14.9827 1 14.5V5C1 3.61667 1.64167 2.604 2.925 1.962C4.20833 1.32 6.23333 0.999334 9 1C11.8667 1 13.9167 1.30833 15.15 1.925C16.3833 2.54167 17 3.56667 17 5V14.5C17 14.9833 16.9083 15.4293 16.725 15.838C16.5417 16.2467 16.3 16.6173 16 16.95V19C16 19.2833 15.904 19.521 15.712 19.713C15.52 19.905 15.2827 20.0007 15 20H14C13.7167 20 13.479 19.904 13.287 19.712C13.095 19.52 12.9993 19.2827 13 19V18H5V19C5 19.2833 4.904 19.521 4.712 19.713C4.52 19.905 4.28267 20.0007 4 20H3ZM9.05 4H14.65H3.45H9.05ZM13 11H3H15H13ZM3 9H15V6H3V9ZM5.5 15C5.91667 15 6.271 14.854 6.563 14.562C6.855 14.27 7.00067 13.916 7 13.5C7 13.0833 6.854 12.729 6.562 12.437C6.27 12.145 5.916 11.9993 5.5 12C5.08333 12 4.729 12.146 4.437 12.438C4.145 12.73 3.99933 13.084 4 13.5C4 13.9167 4.146 14.271 4.438 14.563C4.73 14.855 5.084 15.0007 5.5 15ZM12.5 15C12.9167 15 13.271 14.854 13.563 14.562C13.855 14.27 14.0007 13.916 14 13.5C14 13.0833 13.854 12.729 13.562 12.437C13.27 12.145 12.916 11.9993 12.5 12C12.0833 12 11.729 12.146 11.437 12.438C11.145 12.73 10.9993 13.084 11 13.5C11 13.9167 11.146 14.271 11.438 14.563C11.73 14.855 12.084 15.0007 12.5 15ZM3.45 4H14.65C14.4 3.71667 13.8623 3.479 13.037 3.287C12.2117 3.095 10.8827 2.99933 9.05 3C7.26667 3 5.96233 3.10433 5.137 3.313C4.31167 3.52167 3.74933 3.75067 3.45 4ZM5 16H13C13.55 16 14.021 15.804 14.413 15.412C14.805 15.02 15.0007 14.5493 15 14V11H3V14C3 14.55 3.196 15.021 3.588 15.413C3.98 15.805 4.45067 16.0007 5 16Z" fill="#3C424B"/>
<path d="M14.65 4H9.05H3.45M14.65 4H3.45M14.65 4C14.4 3.71667 13.8623 3.479 13.037 3.287C12.2117 3.095 10.8827 2.99933 9.05 3C7.26667 3 5.96233 3.10433 5.137 3.313C4.31167 3.52167 3.74933 3.75067 3.45 4M3 11H13H15M3 11H15M3 11V14C3 14.55 3.196 15.021 3.588 15.413C3.98 15.805 4.45067 16.0007 5 16H13C13.55 16 14.021 15.804 14.413 15.412C14.805 15.02 15.0007 14.5493 15 14V11M3 20C2.71667 20 2.479 19.904 2.287 19.712C2.095 19.52 1.99933 19.2827 2 19V16.95C1.7 16.6167 1.45833 16.2457 1.275 15.837C1.09167 15.4283 1 14.9827 1 14.5V5C1 3.61667 1.64167 2.604 2.925 1.962C4.20833 1.32 6.23333 0.999334 9 1C11.8667 1 13.9167 1.30833 15.15 1.925C16.3833 2.54167 17 3.56667 17 5V14.5C17 14.9833 16.9083 15.4293 16.725 15.838C16.5417 16.2467 16.3 16.6173 16 16.95V19C16 19.2833 15.904 19.521 15.712 19.713C15.52 19.905 15.2827 20.0007 15 20H14C13.7167 20 13.479 19.904 13.287 19.712C13.095 19.52 12.9993 19.2827 13 19V18H5V19C5 19.2833 4.904 19.521 4.712 19.713C4.52 19.905 4.28267 20.0007 4 20H3ZM3 9H15V6H3V9ZM5.5 15C5.91667 15 6.271 14.854 6.563 14.562C6.855 14.27 7.00067 13.916 7 13.5C7 13.0833 6.854 12.729 6.562 12.437C6.27 12.145 5.916 11.9993 5.5 12C5.08333 12 4.729 12.146 4.437 12.438C4.145 12.73 3.99933 13.084 4 13.5C4 13.9167 4.146 14.271 4.438 14.563C4.73 14.855 5.084 15.0007 5.5 15ZM12.5 15C12.9167 15 13.271 14.854 13.563 14.562C13.855 14.27 14.0007 13.916 14 13.5C14 13.0833 13.854 12.729 13.562 12.437C13.27 12.145 12.916 11.9993 12.5 12C12.0833 12 11.729 12.146 11.437 12.438C11.145 12.73 10.9993 13.084 11 13.5C11 13.9167 11.146 14.271 11.438 14.563C11.73 14.855 12.084 15.0007 12.5 15Z" stroke="white" stroke-width="0.5"/>
</svg>
