<svg width="13" height="15" viewBox="0 0 13 15" fill="none" xmlns="http://www.w3.org/2000/svg">
<path d="M6.50027 7.50008C7.43958 7.50008 8.34042 7.12694 9.00461 6.46275C9.6688 5.79856 10.0419 4.89772 10.0419 3.95842C10.0419 3.01911 9.6688 2.11827 9.00461 1.45408C8.34042 0.789887 7.43958 0.416748 6.50027 0.416748C5.56096 0.416748 4.66013 0.789887 3.99594 1.45408C3.33175 2.11827 2.95861 3.01911 2.95861 3.95842C2.95861 4.89772 3.33175 5.79856 3.99594 6.46275C4.66013 7.12694 5.56096 7.50008 6.50027 7.50008ZM6.50027 9.27092C2.95152 9.27092 0.0615234 11.6509 0.0615234 14.5834C0.0615234 14.7817 0.217357 14.9376 0.41569 14.9376H12.5849C12.7832 14.9376 12.939 14.7817 12.939 14.5834C12.939 11.6509 10.049 9.27092 6.50027 9.27092Z" fill="#3D4561"/>
</svg>
