<svg width="12" height="15" viewBox="0 0 10 11" fill="none" xmlns="http://www.w3.org/2000/svg">
<path d="M5.00008 5C5.66312 5 6.299 4.73661 6.76784 4.26777C7.23669 3.79893 7.50008 3.16304 7.50008 2.5C7.50008 1.83696 7.23669 1.20107 6.76784 0.732233C6.299 0.263392 5.66312 0 5.00008 0C4.33704 0 3.70115 0.263392 3.23231 0.732233C2.76347 1.20107 2.50008 1.83696 2.50008 2.5C2.50008 3.16304 2.76347 3.79893 3.23231 4.26777C3.70115 4.73661 4.33704 5 5.00008 5ZM5.00008 6.25C2.49508 6.25 0.455078 7.93 0.455078 10C0.455078 10.14 0.565078 10.25 0.705078 10.25H9.29508C9.43508 10.25 9.54508 10.14 9.54508 10C9.54508 7.93 7.50508 6.25 5.00008 6.25Z" fill="#3D4561"/>
</svg>
