<svg width="26" height="26" viewBox="0 0 26 26" fill="none" xmlns="http://www.w3.org/2000/svg">
<g id="State=Default">
<rect id="Rectangle 17775" x="1.25" y="1.25" width="23.5" height="23.5" rx="1.75" fill="white" stroke="#A5A5A5" stroke-width="0.5"/>
<path id="Vector" d="M10 6C9.46957 6 8.96086 6.21071 8.58579 6.58579C8.21071 6.96086 8 7.46957 8 8V18C8 18.5304 8.21071 19.0391 8.58579 19.4142C8.96086 19.7893 9.46957 20 10 20H12.257C12.0023 19.6915 11.782 19.3562 11.6 19H10C9.73478 19 9.48043 18.8946 9.29289 18.7071C9.10536 18.5196 9 18.2652 9 18V8C9 7.73478 9.10536 7.48043 9.29289 7.29289C9.48043 7.10536 9.73478 7 10 7H16C16.2652 7 16.5196 7.10536 16.7071 7.29289C16.8946 7.48043 17 7.73478 17 8V11.022C17.3383 11.0527 17.6731 11.1146 18 11.207V8C18 7.46957 17.7893 6.96086 17.4142 6.58579C17.0391 6.21071 16.5304 6 16 6H10ZM14.59 9.992C14.7129 9.96974 14.8231 9.90225 14.8988 9.80283C14.9745 9.70341 15.0102 9.57926 14.9989 9.45482C14.9876 9.33039 14.9301 9.21469 14.8378 9.13051C14.7455 9.04633 14.6249 8.99977 14.5 9H11.5L11.41 9.008C11.2871 9.03026 11.1769 9.09775 11.1012 9.19717C11.0255 9.29659 10.9898 9.42074 11.0011 9.54518C11.0124 9.66961 11.0699 9.78531 11.1622 9.86949C11.2545 9.95367 11.3751 10.0002 11.5 10H14.5L14.59 9.992ZM21 16.5C21 17.6935 20.5259 18.8381 19.682 19.682C18.8381 20.5259 17.6935 21 16.5 21C15.3065 21 14.1619 20.5259 13.318 19.682C12.4741 18.8381 12 17.6935 12 16.5C12 15.3065 12.4741 14.1619 13.318 13.318C14.1619 12.4741 15.3065 12 16.5 12C17.6935 12 18.8381 12.4741 19.682 13.318C20.5259 14.1619 21 15.3065 21 16.5ZM17 14.5C17 14.3674 16.9473 14.2402 16.8536 14.1464C16.7598 14.0527 16.6326 14 16.5 14C16.3674 14 16.2402 14.0527 16.1464 14.1464C16.0527 14.2402 16 14.3674 16 14.5V16H14.5C14.3674 16 14.2402 16.0527 14.1464 16.1464C14.0527 16.2402 14 16.3674 14 16.5C14 16.6326 14.0527 16.7598 14.1464 16.8536C14.2402 16.9473 14.3674 17 14.5 17H16V18.5C16 18.6326 16.0527 18.7598 16.1464 18.8536C16.2402 18.9473 16.3674 19 16.5 19C16.6326 19 16.7598 18.9473 16.8536 18.8536C16.9473 18.7598 17 18.6326 17 18.5V17H18.5C18.6326 17 18.7598 16.9473 18.8536 16.8536C18.9473 16.7598 19 16.6326 19 16.5C19 16.3674 18.9473 16.2402 18.8536 16.1464C18.7598 16.0527 18.6326 16 18.5 16H17V14.5Z" fill="#3D4561"/>
</g>
</svg>
