<svg width="17" height="17" viewBox="0 0 17 17" fill="none" xmlns="http://www.w3.org/2000/svg">
<path d="M13.9143 3.08534C12.5247 1.69575 10.6176 0.833252 8.49968 0.833252C6.46635 0.833252 4.5163 1.64099 3.07852 3.07877C1.64074 4.51655 0.833008 6.46659 0.833008 8.49992C0.833008 10.5332 1.64074 12.4833 3.07852 13.9211C4.5163 15.3589 6.46635 16.1666 8.49968 16.1666C12.0743 16.1666 15.0547 13.7228 15.9076 10.4166H13.9143C13.1284 12.6495 11.0009 14.2499 8.49968 14.2499C6.97468 14.2499 5.51215 13.6441 4.43381 12.5658C3.35548 11.4875 2.74967 10.0249 2.74967 8.49992C2.74967 6.97492 3.35548 5.51239 4.43381 4.43406C5.51215 3.35572 6.97468 2.74992 8.49968 2.74992C10.0905 2.74992 11.5088 3.41117 12.5438 4.45575L9.45801 7.54159H16.1663V0.833252L13.9143 3.08534Z" fill="#3D4561"/>
</svg>
