<svg width="12" height="12" viewBox="0 0 12 12" fill="none" xmlns="http://www.w3.org/2000/svg">
<path d="M9.76666 2.23317C8.79999 1.2665 7.47332 0.666504 5.99999 0.666504C4.5855 0.666504 3.22895 1.22841 2.22875 2.2286C1.22856 3.2288 0.666656 4.58535 0.666656 5.99984C0.666656 7.41432 1.22856 8.77088 2.22875 9.77107C3.22895 10.7713 4.5855 11.3332 5.99999 11.3332C8.48666 11.3332 10.56 9.63317 11.1533 7.33317H9.76666C9.21999 8.8865 7.73999 9.99984 5.99999 9.99984C4.93912 9.99984 3.92171 9.57841 3.17156 8.82826C2.42142 8.07812 1.99999 7.0607 1.99999 5.99984C1.99999 4.93897 2.42142 3.92156 3.17156 3.17141C3.92171 2.42126 4.93912 1.99984 5.99999 1.99984C7.10666 1.99984 8.09332 2.45984 8.81332 3.1865L6.66666 5.33317H11.3333V0.666504L9.76666 2.23317Z" fill="#0C173A"/>
</svg>
