<svg width="16" height="16" viewBox="0 0 16 16" fill="none" xmlns="http://www.w3.org/2000/svg">
<g id="ooui:reload">
<path id="Vector" d="M12.52 3.47994C11.5488 2.50573 10.2895 1.87039 8.9288 1.6681C7.56811 1.4658 6.17844 1.70732 4.9658 2.35685C3.75315 3.00639 2.78206 4.02936 2.19647 5.27415C1.61088 6.51893 1.44196 7.91927 1.71474 9.2676C1.98752 10.6159 2.68749 11.8405 3.7109 12.7598C4.7343 13.679 6.02667 14.2441 7.39643 14.3712C8.7662 14.4982 10.1405 14.1806 11.3155 13.4653C12.4906 12.75 13.4039 11.6751 13.92 10.3999H12.144C11.6496 11.2733 10.8938 11.9697 9.98296 12.3912C9.07213 12.8127 8.0521 12.9381 7.0663 12.7498C6.0805 12.5615 5.17854 12.0689 4.48724 11.3413C3.79595 10.6137 3.35011 9.68774 3.21241 8.69361C3.07472 7.69947 3.25211 6.68718 3.71963 5.7991C4.18714 4.91102 4.92127 4.19181 5.81877 3.74264C6.71627 3.29346 7.73199 3.13691 8.72309 3.29499C9.71419 3.45308 10.6308 3.91785 11.344 4.62394L8.80003 7.19994H14.4V1.59994L12.52 3.47994Z" fill="#3D4561"/>
</g>
</svg>
