<svg width="26" height="26" viewBox="0 0 26 26" fill="none" xmlns="http://www.w3.org/2000/svg">
<g id="State=Default">
<rect id="Rectangle 17775" x="1.25" y="1.25" width="23.5" height="23.5" rx="1.75" fill="white" stroke="#A5A5A5" stroke-width="0.5"/>
<path id="Vector" d="M17.52 8.47994C16.5488 7.50573 15.2895 6.87039 13.9288 6.6681C12.5681 6.4658 11.1784 6.70732 9.9658 7.35685C8.75315 8.00639 7.78206 9.02936 7.19647 10.2741C6.61088 11.5189 6.44196 12.9193 6.71474 14.2676C6.98752 15.6159 7.68749 16.8405 8.7109 17.7598C9.7343 18.679 11.0267 19.2441 12.3964 19.3712C13.7662 19.4982 15.1405 19.1806 16.3155 18.4653C17.4906 17.75 18.4039 16.6751 18.92 15.3999H17.144C16.6496 16.2733 15.8938 16.9697 14.983 17.3912C14.0721 17.8127 13.0521 17.9381 12.0663 17.7498C11.0805 17.5615 10.1785 17.0689 9.48724 16.3413C8.79595 15.6137 8.35011 14.6877 8.21241 13.6936C8.07472 12.6995 8.25211 11.6872 8.71963 10.7991C9.18714 9.91102 9.92127 9.19181 10.8188 8.74264C11.7163 8.29346 12.732 8.13691 13.7231 8.29499C14.7142 8.45308 15.6308 8.91785 16.344 9.62394L13.8 12.1999H19.4V6.59994L17.52 8.47994Z" fill="#3D4561"/>
</g>
</svg>
