<svg width="16" height="16" viewBox="0 0 16 16" fill="none" xmlns="http://www.w3.org/2000/svg">
<path d="M12.5203 3.48007C11.549 2.50585 10.2897 1.87051 8.92904 1.66822C7.56835 1.46592 6.17869 1.70744 4.96604 2.35698C3.75339 3.00651 2.7823 4.02948 2.19671 5.27427C1.61112 6.51905 1.4422 7.9194 1.71498 9.26773C1.98777 10.6161 2.68774 11.8406 3.71114 12.7599C4.73455 13.6791 6.02691 14.2442 7.39668 14.3713C8.76644 14.4984 10.1407 14.1807 11.3158 13.4654C12.4908 12.7501 13.4041 11.6752 13.9203 10.4001H12.1443C11.6498 11.2734 10.894 11.9698 9.9832 12.3913C9.07238 12.8129 8.05234 12.9383 7.06655 12.7499C6.08075 12.5616 5.17878 12.069 4.48749 11.3414C3.79619 10.6138 3.35035 9.68787 3.21266 8.69373C3.07497 7.69959 3.25235 6.68731 3.71987 5.79922C4.18739 4.91114 4.92152 4.19194 5.81902 3.74276C6.71652 3.29359 7.73224 3.13703 8.72333 3.29512C9.71443 3.4532 10.631 3.91797 11.3443 4.62407L8.80028 7.20007H14.4003V1.60007L12.5203 3.48007Z" fill="#3D4561"/>
</svg>
