<svg width="134" height="134" viewBox="0 0 134 134" fill="none" xmlns="http://www.w3.org/2000/svg">
<circle cx="67" cy="67" r="67" fill="#D5DEFF"/>
<path d="M67.5001 25.375C78.0897 25.375 86.6667 33.9521 86.6667 44.5417C86.6667 55.1312 78.0897 63.7083 67.5001 63.7083C56.9105 63.7083 48.3334 55.1312 48.3334 44.5417C48.3334 33.9521 56.9105 25.375 67.5001 25.375ZM86.6667 75.8792C86.6667 80.9583 85.3251 92.7937 76.173 106.019L72.2917 82.875L76.7959 73.8667C73.8251 73.5312 70.7105 73.2917 67.5001 73.2917C64.2897 73.2917 61.1751 73.5312 58.2042 73.8667L62.7084 82.875L58.8272 106.019C49.6751 92.7937 48.3334 80.9583 48.3334 75.8792C36.8813 79.2333 29.1667 85.2708 29.1667 92.4583V111.625H105.833V92.4583C105.833 85.2708 98.1667 79.2333 86.6667 75.8792Z" fill="#3E58B5"/>
</svg>
