<svg width="20" height="18" viewBox="0 0 20 18" fill="none" xmlns="http://www.w3.org/2000/svg">
<path d="M7.18817 1.06714H1.5625V16.9338H7.18817V1.06714Z" stroke="#83889A" stroke-width="2"/>
<path d="M12.8161 1.06714H7.19043V16.9338H12.8161V1.06714Z" stroke="#83889A" stroke-width="2"/>
<path d="M18.4372 1.06714H12.8115V16.9338H18.4372V1.06714Z" stroke="#83889A" stroke-width="2"/>
<path d="M5.50027 3.33276H3.25V5.59943H5.50027V3.33276Z" fill="white"/>
<path d="M4.93763 3.8999H3.8125V5.03324H4.93763V3.8999Z" fill="white" stroke="#83889A"/>
<path d="M5.50027 7.8667H3.25V10.1334H5.50027V7.8667Z" fill="#83889A"/>
<path d="M11.1262 3.33374H8.87598V5.60041H11.1262V3.33374Z" fill="#83889A"/>
<path d="M11.1262 7.8667H8.87598V10.1334H11.1262V7.8667Z" fill="#83889A"/>
<path d="M10.5636 8.43286H9.43848V9.56619H10.5636V8.43286Z" fill="#83889A" stroke="#83889A"/>
<path d="M11.1262 12.3999H8.87598V14.6666H11.1262V12.3999Z" fill="#83889A"/>
<path d="M10.5636 12.967H9.43848V14.1004H10.5636V12.967Z" fill="#83889A" stroke="#83889A"/>
<path d="M16.7512 3.33374H14.501V5.60041H16.7512V3.33374Z" fill="#83889A"/>
<path d="M16.1886 3.8999H15.0635V5.03324H16.1886V3.8999Z" fill="#83889A" stroke="#83889A"/>
</svg>