<svg width="16" height="17" viewBox="0 0 18 18" fill="none" xmlns="http://www.w3.org/2000/svg">
<path d="M8.99999 5.6665C9.88404 5.6665 10.7319 6.01769 11.357 6.64281C11.9821 7.26794 12.3333 8.11578 12.3333 8.99984C12.3333 9.88389 11.9821 10.7317 11.357 11.3569C10.7319 11.982 9.88404 12.3332 8.99999 12.3332C8.11593 12.3332 7.26809 11.982 6.64297 11.3569C6.01784 10.7317 5.66665 9.88389 5.66665 8.99984C5.66665 8.11578 6.01784 7.26794 6.64297 6.64281C7.26809 6.01769 8.11593 5.6665 8.99999 5.6665ZM8.99999 7.33317C8.55796 7.33317 8.13404 7.50877 7.82148 7.82133C7.50892 8.13389 7.33332 8.55781 7.33332 8.99984C7.33332 9.44186 7.50892 9.86579 7.82148 10.1783C8.13404 10.4909 8.55796 10.6665 8.99999 10.6665C9.44202 10.6665 9.86594 10.4909 10.1785 10.1783C10.4911 9.86579 10.6667 9.44186 10.6667 8.99984C10.6667 8.55781 10.4911 8.13389 10.1785 7.82133C9.86594 7.50877 9.44202 7.33317 8.99999 7.33317ZM7.33332 17.3332C7.12499 17.3332 6.94999 17.1832 6.91665 16.9832L6.60832 14.7748C6.08332 14.5665 5.63332 14.2832 5.19999 13.9498L3.12499 14.7915C2.94165 14.8582 2.71666 14.7915 2.61666 14.6082L0.949988 11.7248C0.841655 11.5415 0.891655 11.3165 1.04999 11.1915L2.80832 9.80817L2.74999 8.99984L2.80832 8.1665L1.04999 6.80817C0.891655 6.68317 0.841655 6.45817 0.949988 6.27484L2.61666 3.3915C2.71666 3.20817 2.94165 3.13317 3.12499 3.20817L5.19999 4.0415C5.63332 3.7165 6.08332 3.43317 6.60832 3.22484L6.91665 1.0165C6.94999 0.816504 7.12499 0.666504 7.33332 0.666504H10.6667C10.875 0.666504 11.05 0.816504 11.0833 1.0165L11.3917 3.22484C11.9167 3.43317 12.3667 3.7165 12.8 4.0415L14.875 3.20817C15.0583 3.13317 15.2833 3.20817 15.3833 3.3915L17.05 6.27484C17.1583 6.45817 17.1083 6.68317 16.95 6.80817L15.1917 8.1665L15.25 8.99984L15.1917 9.83317L16.95 11.1915C17.1083 11.3165 17.1583 11.5415 17.05 11.7248L15.3833 14.6082C15.2833 14.7915 15.0583 14.8665 14.875 14.7915L12.8 13.9582C12.3667 14.2832 11.9167 14.5665 11.3917 14.7748L11.0833 16.9832C11.05 17.1832 10.875 17.3332 10.6667 17.3332H7.33332ZM8.37499 2.33317L8.06666 4.50817C7.06666 4.7165 6.18332 5.24984 5.54165 5.9915L3.53332 5.12484L2.90832 6.20817L4.66665 7.49984C4.33332 8.47484 4.33332 9.53317 4.66665 10.4998L2.89999 11.7998L3.52499 12.8832L5.54999 12.0165C6.19165 12.7498 7.06666 13.2832 8.05832 13.4832L8.36665 15.6665H9.63332L9.94166 13.4915C10.9333 13.2832 11.8083 12.7498 12.45 12.0165L14.475 12.8832L15.1 11.7998L13.3333 10.5082C13.6667 9.53317 13.6667 8.47484 13.3333 7.49984L15.0917 6.20817L14.4667 5.12484L12.4583 5.9915C11.8167 5.24984 10.9333 4.7165 9.93332 4.5165L9.62499 2.33317H8.37499Z" fill="#3D4561"/>
</svg>