<svg width="16" height="16" viewBox="0 0 16 16" fill="none" xmlns="http://www.w3.org/2000/svg">
<path d="M5 1C4.46957 1 3.96086 1.21071 3.58579 1.58579C3.21071 1.96086 3 2.46957 3 3V13C3 13.5304 3.21071 14.0391 3.58579 14.4142C3.96086 14.7893 4.46957 15 5 15H7.257C7.00233 14.6915 6.78203 14.3562 6.6 14H5C4.73478 14 4.48043 13.8946 4.29289 13.7071C4.10536 13.5196 4 13.2652 4 13V3C4 2.73478 4.10536 2.48043 4.29289 2.29289C4.48043 2.10536 4.73478 2 5 2H11C11.2652 2 11.5196 2.10536 11.7071 2.29289C11.8946 2.48043 12 2.73478 12 3V6.022C12.3383 6.05265 12.6731 6.11458 13 6.207V3C13 2.46957 12.7893 1.96086 12.4142 1.58579C12.0391 1.21071 11.5304 1 11 1H5ZM9.59 4.992C9.71295 4.96974 9.8231 4.90225 9.89878 4.80283C9.97446 4.70341 10.0102 4.57926 9.99888 4.45482C9.98759 4.33039 9.93012 4.21469 9.83778 4.13051C9.74545 4.04633 9.62495 3.99977 9.5 4H6.5L6.41 4.008C6.28705 4.03026 6.1769 4.09775 6.10122 4.19717C6.02554 4.29659 5.98984 4.42074 6.00112 4.54518C6.01241 4.66961 6.06988 4.78531 6.16222 4.86949C6.25455 4.95367 6.37505 5.00023 6.5 5H9.5L9.59 4.992ZM16 11.5C16 12.6935 15.5259 13.8381 14.682 14.682C13.8381 15.5259 12.6935 16 11.5 16C10.3065 16 9.16193 15.5259 8.31802 14.682C7.47411 13.8381 7 12.6935 7 11.5C7 10.3065 7.47411 9.16193 8.31802 8.31802C9.16193 7.47411 10.3065 7 11.5 7C12.6935 7 13.8381 7.47411 14.682 8.31802C15.5259 9.16193 16 10.3065 16 11.5ZM12 9.5C12 9.36739 11.9473 9.24021 11.8536 9.14645C11.7598 9.05268 11.6326 9 11.5 9C11.3674 9 11.2402 9.05268 11.1464 9.14645C11.0527 9.24021 11 9.36739 11 9.5V11H9.5C9.36739 11 9.24021 11.0527 9.14645 11.1464C9.05268 11.2402 9 11.3674 9 11.5C9 11.6326 9.05268 11.7598 9.14645 11.8536C9.24021 11.9473 9.36739 12 9.5 12H11V13.5C11 13.6326 11.0527 13.7598 11.1464 13.8536C11.2402 13.9473 11.3674 14 11.5 14C11.6326 14 11.7598 13.9473 11.8536 13.8536C11.9473 13.7598 12 13.6326 12 13.5V12H13.5C13.6326 12 13.7598 11.9473 13.8536 11.8536C13.9473 11.7598 14 11.6326 14 11.5C14 11.3674 13.9473 11.2402 13.8536 11.1464C13.7598 11.0527 13.6326 11 13.5 11H12V9.5Z" fill="#3D4561"/>
</svg>
