<svg width="14" height="14" viewBox="0 0 14 14" fill="none" xmlns="http://www.w3.org/2000/svg">
<path fill-rule="evenodd" clip-rule="evenodd" d="M2.75996 8.25332C2.77143 8.17984 2.806 8.11193 2.85866 8.05942L9.91326 1.00482C9.97889 0.939204 10.0679 0.902344 10.1607 0.902344C10.2535 0.902344 10.3425 0.939204 10.4082 1.00482L13.1312 3.72782C13.1966 3.79343 13.2333 3.88228 13.2333 3.97492C13.2333 4.06756 13.1966 4.15641 13.1312 4.22202L6.07516 11.2773C6.02256 11.3297 5.95465 11.364 5.88126 11.3753L2.66476 11.8695C2.61045 11.8778 2.55495 11.8733 2.50274 11.8562C2.45053 11.8391 2.40308 11.8099 2.36423 11.7711C2.32538 11.7322 2.29622 11.6848 2.27912 11.6325C2.26201 11.5803 2.25744 11.5248 2.26576 11.4705L2.75996 8.25332ZM3.43476 8.47312L3.03086 11.1051L5.66216 10.7005L12.3885 3.97492L10.1604 1.74752L3.43476 8.47312Z" fill="#3D4561"/>
<path fill-rule="evenodd" clip-rule="evenodd" d="M10.8314 5.72148L8.35547 3.25048L8.85037 2.75488L11.3256 5.22588L10.8314 5.72148Z" fill="#3D4561"/>
</svg>
